<mxfile host="app.diagrams.net" modified="2020-11-16T05:46:21.534Z" agent="5.0 (Macintosh; Intel Mac OS X 10_15_7) AppleWebKit/537.36 (KHTML, like Gecko) Chrome/79.0.3945.130 Safari/537.36" etag="ZsI5f1r9pgf-YEEwbBZT" version="13.7.9" type="github" pages="7">
  <diagram id="CHJEsGoGNcg8XjefrINr" name="Page-1">
    <mxGraphModel dx="1113" dy="721" grid="1" gridSize="10" guides="1" tooltips="1" connect="1" arrows="1" fold="1" page="1" pageScale="1" pageWidth="827" pageHeight="1169" math="0" shadow="0">
      <root>
        <mxCell id="0" />
        <mxCell id="1" parent="0" />
        <mxCell id="tCOdg0hKxgo_qM8EpvHG-3" value="a" style="text;html=1;fillColor=none;align=center;verticalAlign=middle;whiteSpace=wrap;rounded=0;strokeColor=#000000;fontSize=14;" vertex="1" parent="1">
          <mxGeometry x="100" y="100" width="30" height="30" as="geometry" />
        </mxCell>
        <mxCell id="tCOdg0hKxgo_qM8EpvHG-4" value="b" style="text;html=1;fillColor=none;align=center;verticalAlign=middle;whiteSpace=wrap;rounded=0;strokeColor=#000000;fontSize=14;" vertex="1" parent="1">
          <mxGeometry x="200" y="100" width="30" height="30" as="geometry" />
        </mxCell>
        <mxCell id="tCOdg0hKxgo_qM8EpvHG-5" value="x" style="text;html=1;fillColor=none;align=center;verticalAlign=middle;whiteSpace=wrap;rounded=0;strokeColor=#000000;fontSize=14;" vertex="1" parent="1">
          <mxGeometry x="150" y="220" width="30" height="30" as="geometry" />
        </mxCell>
        <mxCell id="tCOdg0hKxgo_qM8EpvHG-22" style="edgeStyle=orthogonalEdgeStyle;rounded=0;orthogonalLoop=1;jettySize=auto;html=1;exitX=0.5;exitY=1;exitDx=0;exitDy=0;fontSize=14;" edge="1" parent="1" source="tCOdg0hKxgo_qM8EpvHG-6" target="tCOdg0hKxgo_qM8EpvHG-5">
          <mxGeometry relative="1" as="geometry" />
        </mxCell>
        <mxCell id="tCOdg0hKxgo_qM8EpvHG-6" value="add" style="ellipse;whiteSpace=wrap;html=1;aspect=fixed;strokeColor=#b85450;fontSize=14;fillColor=#f8cecc;" vertex="1" parent="1">
          <mxGeometry x="140" y="147" width="50" height="50" as="geometry" />
        </mxCell>
        <mxCell id="tCOdg0hKxgo_qM8EpvHG-7" value="y" style="text;html=1;fillColor=none;align=center;verticalAlign=middle;whiteSpace=wrap;rounded=0;strokeColor=#000000;fontSize=14;" vertex="1" parent="1">
          <mxGeometry x="60" y="220" width="30" height="30" as="geometry" />
        </mxCell>
        <mxCell id="tCOdg0hKxgo_qM8EpvHG-8" value="z" style="text;html=1;fillColor=none;align=center;verticalAlign=middle;whiteSpace=wrap;rounded=0;strokeColor=#000000;fontSize=14;" vertex="1" parent="1">
          <mxGeometry x="240" y="220" width="30" height="30" as="geometry" />
        </mxCell>
        <mxCell id="tCOdg0hKxgo_qM8EpvHG-27" style="edgeStyle=orthogonalEdgeStyle;rounded=0;orthogonalLoop=1;jettySize=auto;html=1;exitX=0.5;exitY=1;exitDx=0;exitDy=0;entryX=0.5;entryY=0;entryDx=0;entryDy=0;fontSize=14;" edge="1" parent="1" source="tCOdg0hKxgo_qM8EpvHG-9" target="tCOdg0hKxgo_qM8EpvHG-11">
          <mxGeometry relative="1" as="geometry" />
        </mxCell>
        <mxCell id="tCOdg0hKxgo_qM8EpvHG-9" value="add" style="ellipse;whiteSpace=wrap;html=1;aspect=fixed;strokeColor=#b85450;fontSize=14;fillColor=#f8cecc;" vertex="1" parent="1">
          <mxGeometry x="90" y="280" width="50" height="50" as="geometry" />
        </mxCell>
        <mxCell id="tCOdg0hKxgo_qM8EpvHG-28" style="edgeStyle=orthogonalEdgeStyle;rounded=0;orthogonalLoop=1;jettySize=auto;html=1;exitX=0.5;exitY=1;exitDx=0;exitDy=0;entryX=0.5;entryY=0;entryDx=0;entryDy=0;fontSize=14;" edge="1" parent="1" source="tCOdg0hKxgo_qM8EpvHG-10" target="tCOdg0hKxgo_qM8EpvHG-12">
          <mxGeometry relative="1" as="geometry" />
        </mxCell>
        <mxCell id="tCOdg0hKxgo_qM8EpvHG-10" value="add" style="ellipse;whiteSpace=wrap;html=1;aspect=fixed;strokeColor=#b85450;fontSize=14;fillColor=#f8cecc;" vertex="1" parent="1">
          <mxGeometry x="190" y="280" width="50" height="50" as="geometry" />
        </mxCell>
        <mxCell id="tCOdg0hKxgo_qM8EpvHG-11" value="o1" style="text;html=1;fillColor=none;align=center;verticalAlign=middle;whiteSpace=wrap;rounded=0;strokeColor=#000000;fontSize=14;" vertex="1" parent="1">
          <mxGeometry x="100" y="360" width="30" height="30" as="geometry" />
        </mxCell>
        <mxCell id="tCOdg0hKxgo_qM8EpvHG-12" value="o2" style="text;html=1;fillColor=none;align=center;verticalAlign=middle;whiteSpace=wrap;rounded=0;strokeColor=#000000;fontSize=14;" vertex="1" parent="1">
          <mxGeometry x="200" y="360" width="30" height="30" as="geometry" />
        </mxCell>
        <mxCell id="tCOdg0hKxgo_qM8EpvHG-14" value="matmul" style="ellipse;whiteSpace=wrap;html=1;strokeColor=#b85450;fontSize=14;fillColor=#f8cecc;" vertex="1" parent="1">
          <mxGeometry x="120" y="410" width="90" height="40" as="geometry" />
        </mxCell>
        <mxCell id="tCOdg0hKxgo_qM8EpvHG-15" value="o" style="text;html=1;fillColor=none;align=center;verticalAlign=middle;whiteSpace=wrap;rounded=0;strokeColor=#000000;fontSize=14;" vertex="1" parent="1">
          <mxGeometry x="150" y="470" width="30" height="30" as="geometry" />
        </mxCell>
        <mxCell id="tCOdg0hKxgo_qM8EpvHG-18" value="" style="endArrow=classic;html=1;fontSize=14;exitX=0.5;exitY=1;exitDx=0;exitDy=0;entryX=0;entryY=0;entryDx=0;entryDy=0;" edge="1" parent="1" source="tCOdg0hKxgo_qM8EpvHG-3" target="tCOdg0hKxgo_qM8EpvHG-6">
          <mxGeometry width="50" height="50" relative="1" as="geometry">
            <mxPoint x="340" y="280" as="sourcePoint" />
            <mxPoint x="390" y="230" as="targetPoint" />
          </mxGeometry>
        </mxCell>
        <mxCell id="tCOdg0hKxgo_qM8EpvHG-21" value="" style="endArrow=classic;html=1;fontSize=14;exitX=0.5;exitY=1;exitDx=0;exitDy=0;entryX=1;entryY=0;entryDx=0;entryDy=0;" edge="1" parent="1" source="tCOdg0hKxgo_qM8EpvHG-4" target="tCOdg0hKxgo_qM8EpvHG-6">
          <mxGeometry width="50" height="50" relative="1" as="geometry">
            <mxPoint x="270" y="250" as="sourcePoint" />
            <mxPoint x="320" y="200" as="targetPoint" />
          </mxGeometry>
        </mxCell>
        <mxCell id="tCOdg0hKxgo_qM8EpvHG-23" value="" style="endArrow=classic;html=1;fontSize=14;exitX=0.5;exitY=1;exitDx=0;exitDy=0;entryX=0;entryY=0;entryDx=0;entryDy=0;" edge="1" parent="1" source="tCOdg0hKxgo_qM8EpvHG-7" target="tCOdg0hKxgo_qM8EpvHG-9">
          <mxGeometry width="50" height="50" relative="1" as="geometry">
            <mxPoint x="40" y="340" as="sourcePoint" />
            <mxPoint x="90" y="290" as="targetPoint" />
          </mxGeometry>
        </mxCell>
        <mxCell id="tCOdg0hKxgo_qM8EpvHG-24" value="" style="endArrow=classic;html=1;fontSize=14;exitX=0.5;exitY=1;exitDx=0;exitDy=0;entryX=1;entryY=0;entryDx=0;entryDy=0;" edge="1" parent="1" source="tCOdg0hKxgo_qM8EpvHG-5" target="tCOdg0hKxgo_qM8EpvHG-9">
          <mxGeometry width="50" height="50" relative="1" as="geometry">
            <mxPoint x="50" y="360" as="sourcePoint" />
            <mxPoint x="100" y="310" as="targetPoint" />
          </mxGeometry>
        </mxCell>
        <mxCell id="tCOdg0hKxgo_qM8EpvHG-25" value="" style="endArrow=classic;html=1;fontSize=14;exitX=0.5;exitY=1;exitDx=0;exitDy=0;" edge="1" parent="1" source="tCOdg0hKxgo_qM8EpvHG-5" target="tCOdg0hKxgo_qM8EpvHG-10">
          <mxGeometry width="50" height="50" relative="1" as="geometry">
            <mxPoint x="30" y="390" as="sourcePoint" />
            <mxPoint x="80" y="340" as="targetPoint" />
          </mxGeometry>
        </mxCell>
        <mxCell id="tCOdg0hKxgo_qM8EpvHG-26" value="" style="endArrow=classic;html=1;fontSize=14;exitX=0.5;exitY=1;exitDx=0;exitDy=0;" edge="1" parent="1" source="tCOdg0hKxgo_qM8EpvHG-8" target="tCOdg0hKxgo_qM8EpvHG-10">
          <mxGeometry width="50" height="50" relative="1" as="geometry">
            <mxPoint x="90" y="390" as="sourcePoint" />
            <mxPoint x="140" y="340" as="targetPoint" />
          </mxGeometry>
        </mxCell>
        <mxCell id="tCOdg0hKxgo_qM8EpvHG-30" value="" style="endArrow=classic;html=1;fontSize=14;exitX=0.5;exitY=1;exitDx=0;exitDy=0;entryX=0.227;entryY=0.054;entryDx=0;entryDy=0;entryPerimeter=0;" edge="1" parent="1" source="tCOdg0hKxgo_qM8EpvHG-11" target="tCOdg0hKxgo_qM8EpvHG-14">
          <mxGeometry width="50" height="50" relative="1" as="geometry">
            <mxPoint x="60" y="460" as="sourcePoint" />
            <mxPoint x="110" y="410" as="targetPoint" />
          </mxGeometry>
        </mxCell>
        <mxCell id="tCOdg0hKxgo_qM8EpvHG-31" value="" style="endArrow=classic;html=1;fontSize=14;exitX=0.5;exitY=1;exitDx=0;exitDy=0;" edge="1" parent="1" source="tCOdg0hKxgo_qM8EpvHG-12" target="tCOdg0hKxgo_qM8EpvHG-14">
          <mxGeometry width="50" height="50" relative="1" as="geometry">
            <mxPoint x="240" y="460" as="sourcePoint" />
            <mxPoint x="290" y="410" as="targetPoint" />
          </mxGeometry>
        </mxCell>
        <mxCell id="tCOdg0hKxgo_qM8EpvHG-32" value="" style="endArrow=classic;html=1;fontSize=14;exitX=0.5;exitY=1;exitDx=0;exitDy=0;" edge="1" parent="1" source="tCOdg0hKxgo_qM8EpvHG-14" target="tCOdg0hKxgo_qM8EpvHG-15">
          <mxGeometry width="50" height="50" relative="1" as="geometry">
            <mxPoint x="70" y="490" as="sourcePoint" />
            <mxPoint x="120" y="440" as="targetPoint" />
          </mxGeometry>
        </mxCell>
        <mxCell id="tCOdg0hKxgo_qM8EpvHG-46" style="edgeStyle=orthogonalEdgeStyle;rounded=0;orthogonalLoop=1;jettySize=auto;html=1;exitX=0.5;exitY=1;exitDx=0;exitDy=0;entryX=0.5;entryY=0;entryDx=0;entryDy=0;fontSize=14;" edge="1" parent="1" source="tCOdg0hKxgo_qM8EpvHG-34" target="tCOdg0hKxgo_qM8EpvHG-35">
          <mxGeometry relative="1" as="geometry" />
        </mxCell>
        <mxCell id="tCOdg0hKxgo_qM8EpvHG-34" value="o_g" style="text;html=1;fillColor=none;align=center;verticalAlign=middle;whiteSpace=wrap;rounded=0;strokeColor=#000000;fontSize=14;" vertex="1" parent="1">
          <mxGeometry x="410" y="100" width="40" height="30" as="geometry" />
        </mxCell>
        <mxCell id="tCOdg0hKxgo_qM8EpvHG-35" value="matmul_grad" style="ellipse;whiteSpace=wrap;html=1;strokeColor=#82b366;fontSize=14;fillColor=#d5e8d4;" vertex="1" parent="1">
          <mxGeometry x="379.5" y="152" width="101" height="40" as="geometry" />
        </mxCell>
        <mxCell id="tCOdg0hKxgo_qM8EpvHG-36" value="o1_g&lt;br&gt;" style="text;html=1;fillColor=none;align=center;verticalAlign=middle;whiteSpace=wrap;rounded=0;strokeColor=#000000;fontSize=14;" vertex="1" parent="1">
          <mxGeometry x="360" y="220" width="50" height="30" as="geometry" />
        </mxCell>
        <mxCell id="tCOdg0hKxgo_qM8EpvHG-37" value="o2_g" style="text;html=1;fillColor=none;align=center;verticalAlign=middle;whiteSpace=wrap;rounded=0;strokeColor=#000000;fontSize=14;" vertex="1" parent="1">
          <mxGeometry x="445" y="220" width="50" height="30" as="geometry" />
        </mxCell>
        <mxCell id="tCOdg0hKxgo_qM8EpvHG-38" value="add_grad" style="ellipse;whiteSpace=wrap;html=1;strokeColor=#82b366;fontSize=14;fillColor=#d5e8d4;" vertex="1" parent="1">
          <mxGeometry x="309" y="285" width="101" height="40" as="geometry" />
        </mxCell>
        <mxCell id="tCOdg0hKxgo_qM8EpvHG-39" value="add_grad" style="ellipse;whiteSpace=wrap;html=1;strokeColor=#82b366;fontSize=14;fillColor=#d5e8d4;" vertex="1" parent="1">
          <mxGeometry x="450" y="285" width="101" height="40" as="geometry" />
        </mxCell>
        <mxCell id="tCOdg0hKxgo_qM8EpvHG-40" value="y_g" style="text;html=1;fillColor=none;align=center;verticalAlign=middle;whiteSpace=wrap;rounded=0;strokeColor=#000000;fontSize=14;" vertex="1" parent="1">
          <mxGeometry x="310" y="360" width="40" height="30" as="geometry" />
        </mxCell>
        <mxCell id="tCOdg0hKxgo_qM8EpvHG-41" value="x_g" style="text;html=1;fillColor=#dae8fc;align=center;verticalAlign=middle;whiteSpace=wrap;rounded=0;strokeColor=#6c8ebf;fontSize=14;" vertex="1" parent="1">
          <mxGeometry x="410" y="360" width="40" height="30" as="geometry" />
        </mxCell>
        <mxCell id="tCOdg0hKxgo_qM8EpvHG-42" value="z_g" style="text;html=1;fillColor=none;align=center;verticalAlign=middle;whiteSpace=wrap;rounded=0;strokeColor=#000000;fontSize=14;" vertex="1" parent="1">
          <mxGeometry x="510" y="360" width="40" height="30" as="geometry" />
        </mxCell>
        <mxCell id="tCOdg0hKxgo_qM8EpvHG-43" value="add_grad" style="ellipse;whiteSpace=wrap;html=1;strokeColor=#82b366;fontSize=14;fillColor=#d5e8d4;" vertex="1" parent="1">
          <mxGeometry x="379.5" y="410" width="101" height="40" as="geometry" />
        </mxCell>
        <mxCell id="tCOdg0hKxgo_qM8EpvHG-44" value="a_g" style="text;html=1;fillColor=none;align=center;verticalAlign=middle;whiteSpace=wrap;rounded=0;strokeColor=#000000;fontSize=14;" vertex="1" parent="1">
          <mxGeometry x="370" y="470" width="40" height="30" as="geometry" />
        </mxCell>
        <mxCell id="tCOdg0hKxgo_qM8EpvHG-45" value="b_g" style="text;html=1;fillColor=none;align=center;verticalAlign=middle;whiteSpace=wrap;rounded=0;strokeColor=#000000;fontSize=14;" vertex="1" parent="1">
          <mxGeometry x="450" y="470" width="40" height="30" as="geometry" />
        </mxCell>
        <mxCell id="tCOdg0hKxgo_qM8EpvHG-47" value="" style="endArrow=classic;html=1;fontSize=14;exitX=0.5;exitY=1;exitDx=0;exitDy=0;entryX=0.5;entryY=0;entryDx=0;entryDy=0;" edge="1" parent="1" source="tCOdg0hKxgo_qM8EpvHG-35" target="tCOdg0hKxgo_qM8EpvHG-36">
          <mxGeometry width="50" height="50" relative="1" as="geometry">
            <mxPoint x="290" y="330" as="sourcePoint" />
            <mxPoint x="340" y="280" as="targetPoint" />
          </mxGeometry>
        </mxCell>
        <mxCell id="tCOdg0hKxgo_qM8EpvHG-48" value="" style="endArrow=classic;html=1;fontSize=14;exitX=0.5;exitY=1;exitDx=0;exitDy=0;entryX=0.5;entryY=0;entryDx=0;entryDy=0;" edge="1" parent="1" source="tCOdg0hKxgo_qM8EpvHG-35" target="tCOdg0hKxgo_qM8EpvHG-37">
          <mxGeometry width="50" height="50" relative="1" as="geometry">
            <mxPoint x="350" y="370" as="sourcePoint" />
            <mxPoint x="400" y="320" as="targetPoint" />
          </mxGeometry>
        </mxCell>
        <mxCell id="tCOdg0hKxgo_qM8EpvHG-49" value="" style="endArrow=classic;html=1;fontSize=14;exitX=0.5;exitY=1;exitDx=0;exitDy=0;entryX=0.5;entryY=0;entryDx=0;entryDy=0;" edge="1" parent="1" source="tCOdg0hKxgo_qM8EpvHG-36" target="tCOdg0hKxgo_qM8EpvHG-38">
          <mxGeometry width="50" height="50" relative="1" as="geometry">
            <mxPoint x="280" y="420" as="sourcePoint" />
            <mxPoint x="330" y="370" as="targetPoint" />
          </mxGeometry>
        </mxCell>
        <mxCell id="tCOdg0hKxgo_qM8EpvHG-50" value="" style="endArrow=classic;html=1;fontSize=14;exitX=0.5;exitY=1;exitDx=0;exitDy=0;entryX=0.5;entryY=0;entryDx=0;entryDy=0;" edge="1" parent="1" source="tCOdg0hKxgo_qM8EpvHG-37" target="tCOdg0hKxgo_qM8EpvHG-39">
          <mxGeometry width="50" height="50" relative="1" as="geometry">
            <mxPoint x="290" y="460" as="sourcePoint" />
            <mxPoint x="340" y="410" as="targetPoint" />
          </mxGeometry>
        </mxCell>
        <mxCell id="tCOdg0hKxgo_qM8EpvHG-51" value="" style="endArrow=classic;html=1;fontSize=14;exitX=0.5;exitY=1;exitDx=0;exitDy=0;entryX=0.5;entryY=0;entryDx=0;entryDy=0;" edge="1" parent="1" source="tCOdg0hKxgo_qM8EpvHG-38" target="tCOdg0hKxgo_qM8EpvHG-40">
          <mxGeometry width="50" height="50" relative="1" as="geometry">
            <mxPoint x="300" y="470" as="sourcePoint" />
            <mxPoint x="350" y="420" as="targetPoint" />
          </mxGeometry>
        </mxCell>
        <mxCell id="tCOdg0hKxgo_qM8EpvHG-52" value="" style="endArrow=classic;html=1;fontSize=14;exitX=0.5;exitY=1;exitDx=0;exitDy=0;entryX=0.5;entryY=0;entryDx=0;entryDy=0;" edge="1" parent="1" source="tCOdg0hKxgo_qM8EpvHG-39" target="tCOdg0hKxgo_qM8EpvHG-42">
          <mxGeometry width="50" height="50" relative="1" as="geometry">
            <mxPoint x="330" y="460" as="sourcePoint" />
            <mxPoint x="380" y="410" as="targetPoint" />
          </mxGeometry>
        </mxCell>
        <mxCell id="tCOdg0hKxgo_qM8EpvHG-54" value="" style="endArrow=classic;html=1;fontSize=14;exitX=0.5;exitY=1;exitDx=0;exitDy=0;entryX=0.5;entryY=0;entryDx=0;entryDy=0;" edge="1" parent="1" source="tCOdg0hKxgo_qM8EpvHG-38" target="tCOdg0hKxgo_qM8EpvHG-41">
          <mxGeometry width="50" height="50" relative="1" as="geometry">
            <mxPoint x="310" y="460" as="sourcePoint" />
            <mxPoint x="360" y="410" as="targetPoint" />
          </mxGeometry>
        </mxCell>
        <mxCell id="tCOdg0hKxgo_qM8EpvHG-55" value="" style="endArrow=classic;html=1;fontSize=14;exitX=0.5;exitY=1;exitDx=0;exitDy=0;entryX=0.5;entryY=0;entryDx=0;entryDy=0;" edge="1" parent="1" source="tCOdg0hKxgo_qM8EpvHG-39" target="tCOdg0hKxgo_qM8EpvHG-41">
          <mxGeometry width="50" height="50" relative="1" as="geometry">
            <mxPoint x="380" y="480" as="sourcePoint" />
            <mxPoint x="430" y="430" as="targetPoint" />
          </mxGeometry>
        </mxCell>
        <mxCell id="tCOdg0hKxgo_qM8EpvHG-56" value="" style="endArrow=classic;html=1;fontSize=14;exitX=0.5;exitY=1;exitDx=0;exitDy=0;entryX=0.5;entryY=0;entryDx=0;entryDy=0;" edge="1" parent="1" source="tCOdg0hKxgo_qM8EpvHG-41" target="tCOdg0hKxgo_qM8EpvHG-43">
          <mxGeometry width="50" height="50" relative="1" as="geometry">
            <mxPoint x="330" y="480" as="sourcePoint" />
            <mxPoint x="380" y="430" as="targetPoint" />
          </mxGeometry>
        </mxCell>
        <mxCell id="tCOdg0hKxgo_qM8EpvHG-57" value="" style="endArrow=classic;html=1;fontSize=14;exitX=0.5;exitY=1;exitDx=0;exitDy=0;entryX=0.5;entryY=0;entryDx=0;entryDy=0;" edge="1" parent="1" source="tCOdg0hKxgo_qM8EpvHG-43" target="tCOdg0hKxgo_qM8EpvHG-44">
          <mxGeometry width="50" height="50" relative="1" as="geometry">
            <mxPoint x="270" y="530" as="sourcePoint" />
            <mxPoint x="320" y="480" as="targetPoint" />
          </mxGeometry>
        </mxCell>
        <mxCell id="tCOdg0hKxgo_qM8EpvHG-58" value="" style="endArrow=classic;html=1;fontSize=14;exitX=0.5;exitY=1;exitDx=0;exitDy=0;entryX=0.5;entryY=0;entryDx=0;entryDy=0;" edge="1" parent="1" source="tCOdg0hKxgo_qM8EpvHG-43" target="tCOdg0hKxgo_qM8EpvHG-45">
          <mxGeometry width="50" height="50" relative="1" as="geometry">
            <mxPoint x="300" y="530" as="sourcePoint" />
            <mxPoint x="350" y="480" as="targetPoint" />
          </mxGeometry>
        </mxCell>
        <mxCell id="tCOdg0hKxgo_qM8EpvHG-59" value="" style="endArrow=classic;dashed=1;html=1;strokeWidth=1;fontSize=14;exitX=1;exitY=0.25;exitDx=0;exitDy=0;entryX=0;entryY=0.5;entryDx=0;entryDy=0;fillColor=#f5f5f5;strokeColor=#666666;endFill=1;" edge="1" parent="1" source="tCOdg0hKxgo_qM8EpvHG-15" target="tCOdg0hKxgo_qM8EpvHG-35">
          <mxGeometry width="50" height="50" relative="1" as="geometry">
            <mxPoint x="250" y="490" as="sourcePoint" />
            <mxPoint x="310" y="450" as="targetPoint" />
          </mxGeometry>
        </mxCell>
        <mxCell id="tCOdg0hKxgo_qM8EpvHG-62" value="" style="endArrow=classic;dashed=1;html=1;strokeWidth=1;fontSize=14;exitX=1;exitY=0.5;exitDx=0;exitDy=0;entryX=0;entryY=0.5;entryDx=0;entryDy=0;fillColor=#f5f5f5;strokeColor=#666666;endFill=1;" edge="1" parent="1" source="tCOdg0hKxgo_qM8EpvHG-11" target="tCOdg0hKxgo_qM8EpvHG-38">
          <mxGeometry width="50" height="50" relative="1" as="geometry">
            <mxPoint x="189.9999999999999" y="487.5" as="sourcePoint" />
            <mxPoint x="389.49999999999955" y="182" as="targetPoint" />
          </mxGeometry>
        </mxCell>
        <mxCell id="tCOdg0hKxgo_qM8EpvHG-63" value="" style="endArrow=classic;dashed=1;html=1;strokeWidth=1;fontSize=14;exitX=1;exitY=0.5;exitDx=0;exitDy=0;fillColor=#f5f5f5;strokeColor=#666666;endFill=1;entryX=0;entryY=0.5;entryDx=0;entryDy=0;" edge="1" parent="1" source="tCOdg0hKxgo_qM8EpvHG-12" target="tCOdg0hKxgo_qM8EpvHG-39">
          <mxGeometry width="50" height="50" relative="1" as="geometry">
            <mxPoint x="199.9999999999999" y="497.5" as="sourcePoint" />
            <mxPoint x="310" y="430" as="targetPoint" />
          </mxGeometry>
        </mxCell>
        <mxCell id="tCOdg0hKxgo_qM8EpvHG-64" value="" style="endArrow=classic;dashed=1;html=1;strokeWidth=1;fontSize=14;exitX=1;exitY=0.5;exitDx=0;exitDy=0;entryX=0;entryY=0.5;entryDx=0;entryDy=0;fillColor=#f5f5f5;strokeColor=#666666;endFill=1;" edge="1" parent="1" source="tCOdg0hKxgo_qM8EpvHG-7" target="tCOdg0hKxgo_qM8EpvHG-38">
          <mxGeometry width="50" height="50" relative="1" as="geometry">
            <mxPoint x="209.9999999999999" y="507.5" as="sourcePoint" />
            <mxPoint x="409.49999999999955" y="202" as="targetPoint" />
          </mxGeometry>
        </mxCell>
        <mxCell id="tCOdg0hKxgo_qM8EpvHG-65" value="" style="endArrow=classic;dashed=1;html=1;strokeWidth=1;fontSize=14;exitX=1;exitY=0.5;exitDx=0;exitDy=0;entryX=0;entryY=0.5;entryDx=0;entryDy=0;fillColor=#f5f5f5;strokeColor=#666666;endFill=1;" edge="1" parent="1" source="tCOdg0hKxgo_qM8EpvHG-5" target="tCOdg0hKxgo_qM8EpvHG-38">
          <mxGeometry width="50" height="50" relative="1" as="geometry">
            <mxPoint x="219.9999999999999" y="517.5" as="sourcePoint" />
            <mxPoint x="419.49999999999955" y="212" as="targetPoint" />
          </mxGeometry>
        </mxCell>
        <mxCell id="tCOdg0hKxgo_qM8EpvHG-66" value="" style="endArrow=classic;dashed=1;html=1;strokeWidth=1;fontSize=14;exitX=1;exitY=0.5;exitDx=0;exitDy=0;entryX=0;entryY=0.5;entryDx=0;entryDy=0;fillColor=#f5f5f5;strokeColor=#666666;endFill=1;" edge="1" parent="1" source="tCOdg0hKxgo_qM8EpvHG-5" target="tCOdg0hKxgo_qM8EpvHG-39">
          <mxGeometry width="50" height="50" relative="1" as="geometry">
            <mxPoint x="229.9999999999999" y="527.5" as="sourcePoint" />
            <mxPoint x="429.49999999999955" y="222" as="targetPoint" />
          </mxGeometry>
        </mxCell>
        <mxCell id="tCOdg0hKxgo_qM8EpvHG-67" value="" style="endArrow=classic;dashed=1;html=1;strokeWidth=1;fontSize=14;exitX=1;exitY=0.5;exitDx=0;exitDy=0;fillColor=#f5f5f5;strokeColor=#666666;endFill=1;" edge="1" parent="1" source="tCOdg0hKxgo_qM8EpvHG-8">
          <mxGeometry width="50" height="50" relative="1" as="geometry">
            <mxPoint x="239.9999999999999" y="537.5" as="sourcePoint" />
            <mxPoint x="450" y="310" as="targetPoint" />
          </mxGeometry>
        </mxCell>
        <mxCell id="tCOdg0hKxgo_qM8EpvHG-69" value="" style="endArrow=classic;dashed=1;html=1;strokeWidth=1;fontSize=14;exitX=1;exitY=0.75;exitDx=0;exitDy=0;entryX=0;entryY=0.5;entryDx=0;entryDy=0;fillColor=#f5f5f5;strokeColor=#666666;endFill=1;" edge="1" parent="1" source="tCOdg0hKxgo_qM8EpvHG-3" target="tCOdg0hKxgo_qM8EpvHG-43">
          <mxGeometry width="50" height="50" relative="1" as="geometry">
            <mxPoint x="249.9999999999999" y="547.5" as="sourcePoint" />
            <mxPoint x="449.49999999999955" y="242" as="targetPoint" />
          </mxGeometry>
        </mxCell>
        <mxCell id="tCOdg0hKxgo_qM8EpvHG-70" value="" style="endArrow=classic;dashed=1;html=1;strokeWidth=1;fontSize=14;exitX=1;exitY=0.75;exitDx=0;exitDy=0;entryX=0;entryY=0.5;entryDx=0;entryDy=0;fillColor=#f5f5f5;strokeColor=#666666;endFill=1;" edge="1" parent="1" source="tCOdg0hKxgo_qM8EpvHG-4" target="tCOdg0hKxgo_qM8EpvHG-43">
          <mxGeometry width="50" height="50" relative="1" as="geometry">
            <mxPoint x="259.9999999999999" y="557.5" as="sourcePoint" />
            <mxPoint x="459.49999999999955" y="252" as="targetPoint" />
          </mxGeometry>
        </mxCell>
      </root>
    </mxGraphModel>
  </diagram>
  <diagram id="1DuMMy0laBUhzPgau-ZG" name="Page-2">
    <mxGraphModel dx="946" dy="613" grid="1" gridSize="10" guides="1" tooltips="1" connect="1" arrows="1" fold="1" page="1" pageScale="1" pageWidth="827" pageHeight="1169" math="0" shadow="0">
      <root>
        <mxCell id="MfNsAsNvm8OpWWt5l0zq-0" />
        <mxCell id="MfNsAsNvm8OpWWt5l0zq-1" parent="MfNsAsNvm8OpWWt5l0zq-0" />
        <mxCell id="19G4RYxdpRGH6Uji1pxl-0" value="a" style="text;html=1;fillColor=none;align=center;verticalAlign=middle;whiteSpace=wrap;rounded=0;strokeColor=#000000;fontSize=14;" vertex="1" parent="MfNsAsNvm8OpWWt5l0zq-1">
          <mxGeometry x="100" y="100" width="30" height="30" as="geometry" />
        </mxCell>
        <mxCell id="19G4RYxdpRGH6Uji1pxl-1" value="b" style="text;html=1;fillColor=none;align=center;verticalAlign=middle;whiteSpace=wrap;rounded=0;strokeColor=#000000;fontSize=14;" vertex="1" parent="MfNsAsNvm8OpWWt5l0zq-1">
          <mxGeometry x="200" y="100" width="30" height="30" as="geometry" />
        </mxCell>
        <mxCell id="19G4RYxdpRGH6Uji1pxl-2" value="x" style="text;html=1;fillColor=none;align=center;verticalAlign=middle;whiteSpace=wrap;rounded=0;strokeColor=#000000;fontSize=14;" vertex="1" parent="MfNsAsNvm8OpWWt5l0zq-1">
          <mxGeometry x="150" y="220" width="30" height="30" as="geometry" />
        </mxCell>
        <mxCell id="19G4RYxdpRGH6Uji1pxl-3" style="edgeStyle=orthogonalEdgeStyle;rounded=0;orthogonalLoop=1;jettySize=auto;html=1;exitX=0.5;exitY=1;exitDx=0;exitDy=0;fontSize=14;" edge="1" parent="MfNsAsNvm8OpWWt5l0zq-1" source="19G4RYxdpRGH6Uji1pxl-4" target="19G4RYxdpRGH6Uji1pxl-2">
          <mxGeometry relative="1" as="geometry" />
        </mxCell>
        <mxCell id="19G4RYxdpRGH6Uji1pxl-4" value="add" style="ellipse;whiteSpace=wrap;html=1;aspect=fixed;strokeColor=#b85450;fontSize=14;fillColor=#f8cecc;" vertex="1" parent="MfNsAsNvm8OpWWt5l0zq-1">
          <mxGeometry x="140" y="147" width="50" height="50" as="geometry" />
        </mxCell>
        <mxCell id="19G4RYxdpRGH6Uji1pxl-5" value="y" style="text;html=1;fillColor=none;align=center;verticalAlign=middle;whiteSpace=wrap;rounded=0;strokeColor=#000000;fontSize=14;" vertex="1" parent="MfNsAsNvm8OpWWt5l0zq-1">
          <mxGeometry x="60" y="220" width="30" height="30" as="geometry" />
        </mxCell>
        <mxCell id="19G4RYxdpRGH6Uji1pxl-6" value="z" style="text;html=1;fillColor=none;align=center;verticalAlign=middle;whiteSpace=wrap;rounded=0;strokeColor=#000000;fontSize=14;" vertex="1" parent="MfNsAsNvm8OpWWt5l0zq-1">
          <mxGeometry x="240" y="220" width="30" height="30" as="geometry" />
        </mxCell>
        <mxCell id="19G4RYxdpRGH6Uji1pxl-7" style="edgeStyle=orthogonalEdgeStyle;rounded=0;orthogonalLoop=1;jettySize=auto;html=1;exitX=0.5;exitY=1;exitDx=0;exitDy=0;entryX=0.5;entryY=0;entryDx=0;entryDy=0;fontSize=14;" edge="1" parent="MfNsAsNvm8OpWWt5l0zq-1" source="19G4RYxdpRGH6Uji1pxl-8" target="19G4RYxdpRGH6Uji1pxl-11">
          <mxGeometry relative="1" as="geometry" />
        </mxCell>
        <mxCell id="19G4RYxdpRGH6Uji1pxl-8" value="add" style="ellipse;whiteSpace=wrap;html=1;aspect=fixed;strokeColor=#b85450;fontSize=14;fillColor=#f8cecc;" vertex="1" parent="MfNsAsNvm8OpWWt5l0zq-1">
          <mxGeometry x="90" y="280" width="50" height="50" as="geometry" />
        </mxCell>
        <mxCell id="19G4RYxdpRGH6Uji1pxl-9" style="edgeStyle=orthogonalEdgeStyle;rounded=0;orthogonalLoop=1;jettySize=auto;html=1;exitX=0.5;exitY=1;exitDx=0;exitDy=0;entryX=0.5;entryY=0;entryDx=0;entryDy=0;fontSize=14;" edge="1" parent="MfNsAsNvm8OpWWt5l0zq-1" source="19G4RYxdpRGH6Uji1pxl-10" target="19G4RYxdpRGH6Uji1pxl-12">
          <mxGeometry relative="1" as="geometry" />
        </mxCell>
        <mxCell id="19G4RYxdpRGH6Uji1pxl-10" value="add" style="ellipse;whiteSpace=wrap;html=1;aspect=fixed;strokeColor=#b85450;fontSize=14;fillColor=#f8cecc;" vertex="1" parent="MfNsAsNvm8OpWWt5l0zq-1">
          <mxGeometry x="190" y="280" width="50" height="50" as="geometry" />
        </mxCell>
        <mxCell id="19G4RYxdpRGH6Uji1pxl-11" value="o1" style="text;html=1;fillColor=none;align=center;verticalAlign=middle;whiteSpace=wrap;rounded=0;strokeColor=#000000;fontSize=14;" vertex="1" parent="MfNsAsNvm8OpWWt5l0zq-1">
          <mxGeometry x="100" y="360" width="30" height="30" as="geometry" />
        </mxCell>
        <mxCell id="19G4RYxdpRGH6Uji1pxl-12" value="o2" style="text;html=1;fillColor=none;align=center;verticalAlign=middle;whiteSpace=wrap;rounded=0;strokeColor=#000000;fontSize=14;" vertex="1" parent="MfNsAsNvm8OpWWt5l0zq-1">
          <mxGeometry x="200" y="360" width="30" height="30" as="geometry" />
        </mxCell>
        <mxCell id="19G4RYxdpRGH6Uji1pxl-13" value="matmul" style="ellipse;whiteSpace=wrap;html=1;strokeColor=#b85450;fontSize=14;fillColor=#f8cecc;" vertex="1" parent="MfNsAsNvm8OpWWt5l0zq-1">
          <mxGeometry x="120" y="410" width="90" height="40" as="geometry" />
        </mxCell>
        <mxCell id="19G4RYxdpRGH6Uji1pxl-14" value="o" style="text;html=1;fillColor=none;align=center;verticalAlign=middle;whiteSpace=wrap;rounded=0;strokeColor=#000000;fontSize=14;" vertex="1" parent="MfNsAsNvm8OpWWt5l0zq-1">
          <mxGeometry x="150" y="470" width="30" height="30" as="geometry" />
        </mxCell>
        <mxCell id="19G4RYxdpRGH6Uji1pxl-15" value="" style="endArrow=classic;html=1;fontSize=14;exitX=0.5;exitY=1;exitDx=0;exitDy=0;entryX=0;entryY=0;entryDx=0;entryDy=0;" edge="1" parent="MfNsAsNvm8OpWWt5l0zq-1" source="19G4RYxdpRGH6Uji1pxl-0" target="19G4RYxdpRGH6Uji1pxl-4">
          <mxGeometry width="50" height="50" relative="1" as="geometry">
            <mxPoint x="340" y="280" as="sourcePoint" />
            <mxPoint x="390" y="230" as="targetPoint" />
          </mxGeometry>
        </mxCell>
        <mxCell id="19G4RYxdpRGH6Uji1pxl-16" value="" style="endArrow=classic;html=1;fontSize=14;exitX=0.5;exitY=1;exitDx=0;exitDy=0;entryX=1;entryY=0;entryDx=0;entryDy=0;" edge="1" parent="MfNsAsNvm8OpWWt5l0zq-1" source="19G4RYxdpRGH6Uji1pxl-1" target="19G4RYxdpRGH6Uji1pxl-4">
          <mxGeometry width="50" height="50" relative="1" as="geometry">
            <mxPoint x="270" y="250" as="sourcePoint" />
            <mxPoint x="320" y="200" as="targetPoint" />
          </mxGeometry>
        </mxCell>
        <mxCell id="19G4RYxdpRGH6Uji1pxl-17" value="" style="endArrow=classic;html=1;fontSize=14;exitX=0.5;exitY=1;exitDx=0;exitDy=0;entryX=0;entryY=0;entryDx=0;entryDy=0;" edge="1" parent="MfNsAsNvm8OpWWt5l0zq-1" source="19G4RYxdpRGH6Uji1pxl-5" target="19G4RYxdpRGH6Uji1pxl-8">
          <mxGeometry width="50" height="50" relative="1" as="geometry">
            <mxPoint x="40" y="340" as="sourcePoint" />
            <mxPoint x="90" y="290" as="targetPoint" />
          </mxGeometry>
        </mxCell>
        <mxCell id="19G4RYxdpRGH6Uji1pxl-18" value="" style="endArrow=classic;html=1;fontSize=14;exitX=0.5;exitY=1;exitDx=0;exitDy=0;entryX=1;entryY=0;entryDx=0;entryDy=0;" edge="1" parent="MfNsAsNvm8OpWWt5l0zq-1" source="19G4RYxdpRGH6Uji1pxl-2" target="19G4RYxdpRGH6Uji1pxl-8">
          <mxGeometry width="50" height="50" relative="1" as="geometry">
            <mxPoint x="50" y="360" as="sourcePoint" />
            <mxPoint x="100" y="310" as="targetPoint" />
          </mxGeometry>
        </mxCell>
        <mxCell id="19G4RYxdpRGH6Uji1pxl-19" value="" style="endArrow=classic;html=1;fontSize=14;exitX=0.5;exitY=1;exitDx=0;exitDy=0;" edge="1" parent="MfNsAsNvm8OpWWt5l0zq-1" source="19G4RYxdpRGH6Uji1pxl-2" target="19G4RYxdpRGH6Uji1pxl-10">
          <mxGeometry width="50" height="50" relative="1" as="geometry">
            <mxPoint x="30" y="390" as="sourcePoint" />
            <mxPoint x="80" y="340" as="targetPoint" />
          </mxGeometry>
        </mxCell>
        <mxCell id="19G4RYxdpRGH6Uji1pxl-20" value="" style="endArrow=classic;html=1;fontSize=14;exitX=0.5;exitY=1;exitDx=0;exitDy=0;" edge="1" parent="MfNsAsNvm8OpWWt5l0zq-1" source="19G4RYxdpRGH6Uji1pxl-6" target="19G4RYxdpRGH6Uji1pxl-10">
          <mxGeometry width="50" height="50" relative="1" as="geometry">
            <mxPoint x="90" y="390" as="sourcePoint" />
            <mxPoint x="140" y="340" as="targetPoint" />
          </mxGeometry>
        </mxCell>
        <mxCell id="19G4RYxdpRGH6Uji1pxl-21" value="" style="endArrow=classic;html=1;fontSize=14;exitX=0.5;exitY=1;exitDx=0;exitDy=0;entryX=0.227;entryY=0.054;entryDx=0;entryDy=0;entryPerimeter=0;" edge="1" parent="MfNsAsNvm8OpWWt5l0zq-1" source="19G4RYxdpRGH6Uji1pxl-11" target="19G4RYxdpRGH6Uji1pxl-13">
          <mxGeometry width="50" height="50" relative="1" as="geometry">
            <mxPoint x="60" y="460" as="sourcePoint" />
            <mxPoint x="110" y="410" as="targetPoint" />
          </mxGeometry>
        </mxCell>
        <mxCell id="19G4RYxdpRGH6Uji1pxl-22" value="" style="endArrow=classic;html=1;fontSize=14;exitX=0.5;exitY=1;exitDx=0;exitDy=0;" edge="1" parent="MfNsAsNvm8OpWWt5l0zq-1" source="19G4RYxdpRGH6Uji1pxl-12" target="19G4RYxdpRGH6Uji1pxl-13">
          <mxGeometry width="50" height="50" relative="1" as="geometry">
            <mxPoint x="240" y="460" as="sourcePoint" />
            <mxPoint x="290" y="410" as="targetPoint" />
          </mxGeometry>
        </mxCell>
        <mxCell id="19G4RYxdpRGH6Uji1pxl-23" value="" style="endArrow=classic;html=1;fontSize=14;exitX=0.5;exitY=1;exitDx=0;exitDy=0;" edge="1" parent="MfNsAsNvm8OpWWt5l0zq-1" source="19G4RYxdpRGH6Uji1pxl-13" target="19G4RYxdpRGH6Uji1pxl-14">
          <mxGeometry width="50" height="50" relative="1" as="geometry">
            <mxPoint x="70" y="490" as="sourcePoint" />
            <mxPoint x="120" y="440" as="targetPoint" />
          </mxGeometry>
        </mxCell>
        <mxCell id="19G4RYxdpRGH6Uji1pxl-24" style="edgeStyle=orthogonalEdgeStyle;rounded=0;orthogonalLoop=1;jettySize=auto;html=1;exitX=0.5;exitY=1;exitDx=0;exitDy=0;entryX=0.5;entryY=0;entryDx=0;entryDy=0;fontSize=14;" edge="1" parent="MfNsAsNvm8OpWWt5l0zq-1" source="19G4RYxdpRGH6Uji1pxl-25" target="19G4RYxdpRGH6Uji1pxl-26">
          <mxGeometry relative="1" as="geometry" />
        </mxCell>
        <mxCell id="19G4RYxdpRGH6Uji1pxl-25" value="o_g" style="text;html=1;fillColor=none;align=center;verticalAlign=middle;whiteSpace=wrap;rounded=0;strokeColor=#000000;fontSize=14;" vertex="1" parent="MfNsAsNvm8OpWWt5l0zq-1">
          <mxGeometry x="410" y="100" width="40" height="30" as="geometry" />
        </mxCell>
        <mxCell id="19G4RYxdpRGH6Uji1pxl-26" value="matmul_grad" style="ellipse;whiteSpace=wrap;html=1;strokeColor=#82b366;fontSize=14;fillColor=#d5e8d4;" vertex="1" parent="MfNsAsNvm8OpWWt5l0zq-1">
          <mxGeometry x="379.5" y="152" width="101" height="40" as="geometry" />
        </mxCell>
        <mxCell id="19G4RYxdpRGH6Uji1pxl-27" value="o1_g&lt;br&gt;" style="text;html=1;fillColor=none;align=center;verticalAlign=middle;whiteSpace=wrap;rounded=0;strokeColor=#000000;fontSize=14;" vertex="1" parent="MfNsAsNvm8OpWWt5l0zq-1">
          <mxGeometry x="360" y="220" width="50" height="30" as="geometry" />
        </mxCell>
        <mxCell id="19G4RYxdpRGH6Uji1pxl-28" value="o2_g" style="text;html=1;fillColor=none;align=center;verticalAlign=middle;whiteSpace=wrap;rounded=0;strokeColor=#000000;fontSize=14;" vertex="1" parent="MfNsAsNvm8OpWWt5l0zq-1">
          <mxGeometry x="445" y="220" width="50" height="30" as="geometry" />
        </mxCell>
        <mxCell id="19G4RYxdpRGH6Uji1pxl-29" value="add_grad" style="ellipse;whiteSpace=wrap;html=1;strokeColor=#82b366;fontSize=14;fillColor=#d5e8d4;" vertex="1" parent="MfNsAsNvm8OpWWt5l0zq-1">
          <mxGeometry x="309" y="285" width="101" height="40" as="geometry" />
        </mxCell>
        <mxCell id="19G4RYxdpRGH6Uji1pxl-30" value="add_grad" style="ellipse;whiteSpace=wrap;html=1;strokeColor=#82b366;fontSize=14;fillColor=#d5e8d4;" vertex="1" parent="MfNsAsNvm8OpWWt5l0zq-1">
          <mxGeometry x="450" y="285" width="101" height="40" as="geometry" />
        </mxCell>
        <mxCell id="19G4RYxdpRGH6Uji1pxl-31" value="y_g" style="text;html=1;fillColor=none;align=center;verticalAlign=middle;whiteSpace=wrap;rounded=0;strokeColor=#000000;fontSize=14;" vertex="1" parent="MfNsAsNvm8OpWWt5l0zq-1">
          <mxGeometry x="310" y="360" width="40" height="30" as="geometry" />
        </mxCell>
        <mxCell id="19G4RYxdpRGH6Uji1pxl-32" value="x_g" style="text;html=1;fillColor=#dae8fc;align=center;verticalAlign=middle;whiteSpace=wrap;rounded=0;strokeColor=#6c8ebf;fontSize=14;" vertex="1" parent="MfNsAsNvm8OpWWt5l0zq-1">
          <mxGeometry x="410" y="360" width="40" height="30" as="geometry" />
        </mxCell>
        <mxCell id="19G4RYxdpRGH6Uji1pxl-33" value="z_g" style="text;html=1;fillColor=none;align=center;verticalAlign=middle;whiteSpace=wrap;rounded=0;strokeColor=#000000;fontSize=14;" vertex="1" parent="MfNsAsNvm8OpWWt5l0zq-1">
          <mxGeometry x="510" y="360" width="40" height="30" as="geometry" />
        </mxCell>
        <mxCell id="19G4RYxdpRGH6Uji1pxl-34" value="add_grad" style="ellipse;whiteSpace=wrap;html=1;strokeColor=#82b366;fontSize=14;fillColor=#d5e8d4;" vertex="1" parent="MfNsAsNvm8OpWWt5l0zq-1">
          <mxGeometry x="379.5" y="410" width="101" height="40" as="geometry" />
        </mxCell>
        <mxCell id="19G4RYxdpRGH6Uji1pxl-35" value="a_g" style="text;html=1;fillColor=none;align=center;verticalAlign=middle;whiteSpace=wrap;rounded=0;strokeColor=#000000;fontSize=14;" vertex="1" parent="MfNsAsNvm8OpWWt5l0zq-1">
          <mxGeometry x="370" y="470" width="40" height="30" as="geometry" />
        </mxCell>
        <mxCell id="19G4RYxdpRGH6Uji1pxl-36" value="b_g" style="text;html=1;fillColor=none;align=center;verticalAlign=middle;whiteSpace=wrap;rounded=0;strokeColor=#000000;fontSize=14;" vertex="1" parent="MfNsAsNvm8OpWWt5l0zq-1">
          <mxGeometry x="450" y="470" width="40" height="30" as="geometry" />
        </mxCell>
        <mxCell id="19G4RYxdpRGH6Uji1pxl-37" value="" style="endArrow=classic;html=1;fontSize=14;exitX=0.5;exitY=1;exitDx=0;exitDy=0;entryX=0.5;entryY=0;entryDx=0;entryDy=0;" edge="1" parent="MfNsAsNvm8OpWWt5l0zq-1" source="19G4RYxdpRGH6Uji1pxl-26" target="19G4RYxdpRGH6Uji1pxl-27">
          <mxGeometry width="50" height="50" relative="1" as="geometry">
            <mxPoint x="290" y="330" as="sourcePoint" />
            <mxPoint x="340" y="280" as="targetPoint" />
          </mxGeometry>
        </mxCell>
        <mxCell id="19G4RYxdpRGH6Uji1pxl-38" value="" style="endArrow=classic;html=1;fontSize=14;exitX=0.5;exitY=1;exitDx=0;exitDy=0;entryX=0.5;entryY=0;entryDx=0;entryDy=0;" edge="1" parent="MfNsAsNvm8OpWWt5l0zq-1" source="19G4RYxdpRGH6Uji1pxl-26" target="19G4RYxdpRGH6Uji1pxl-28">
          <mxGeometry width="50" height="50" relative="1" as="geometry">
            <mxPoint x="350" y="370" as="sourcePoint" />
            <mxPoint x="400" y="320" as="targetPoint" />
          </mxGeometry>
        </mxCell>
        <mxCell id="19G4RYxdpRGH6Uji1pxl-39" value="" style="endArrow=classic;html=1;fontSize=14;exitX=0.5;exitY=1;exitDx=0;exitDy=0;entryX=0.5;entryY=0;entryDx=0;entryDy=0;" edge="1" parent="MfNsAsNvm8OpWWt5l0zq-1" source="19G4RYxdpRGH6Uji1pxl-27" target="19G4RYxdpRGH6Uji1pxl-29">
          <mxGeometry width="50" height="50" relative="1" as="geometry">
            <mxPoint x="280" y="420" as="sourcePoint" />
            <mxPoint x="330" y="370" as="targetPoint" />
          </mxGeometry>
        </mxCell>
        <mxCell id="19G4RYxdpRGH6Uji1pxl-40" value="" style="endArrow=classic;html=1;fontSize=14;exitX=0.5;exitY=1;exitDx=0;exitDy=0;entryX=0.5;entryY=0;entryDx=0;entryDy=0;" edge="1" parent="MfNsAsNvm8OpWWt5l0zq-1" source="19G4RYxdpRGH6Uji1pxl-28" target="19G4RYxdpRGH6Uji1pxl-30">
          <mxGeometry width="50" height="50" relative="1" as="geometry">
            <mxPoint x="290" y="460" as="sourcePoint" />
            <mxPoint x="340" y="410" as="targetPoint" />
          </mxGeometry>
        </mxCell>
        <mxCell id="19G4RYxdpRGH6Uji1pxl-41" value="" style="endArrow=classic;html=1;fontSize=14;exitX=0.5;exitY=1;exitDx=0;exitDy=0;entryX=0.5;entryY=0;entryDx=0;entryDy=0;" edge="1" parent="MfNsAsNvm8OpWWt5l0zq-1" source="19G4RYxdpRGH6Uji1pxl-29" target="19G4RYxdpRGH6Uji1pxl-31">
          <mxGeometry width="50" height="50" relative="1" as="geometry">
            <mxPoint x="300" y="470" as="sourcePoint" />
            <mxPoint x="350" y="420" as="targetPoint" />
          </mxGeometry>
        </mxCell>
        <mxCell id="19G4RYxdpRGH6Uji1pxl-42" value="" style="endArrow=classic;html=1;fontSize=14;exitX=0.5;exitY=1;exitDx=0;exitDy=0;entryX=0.5;entryY=0;entryDx=0;entryDy=0;" edge="1" parent="MfNsAsNvm8OpWWt5l0zq-1" source="19G4RYxdpRGH6Uji1pxl-30" target="19G4RYxdpRGH6Uji1pxl-33">
          <mxGeometry width="50" height="50" relative="1" as="geometry">
            <mxPoint x="330" y="460" as="sourcePoint" />
            <mxPoint x="380" y="410" as="targetPoint" />
          </mxGeometry>
        </mxCell>
        <mxCell id="19G4RYxdpRGH6Uji1pxl-43" value="" style="endArrow=classic;html=1;fontSize=14;exitX=0.5;exitY=1;exitDx=0;exitDy=0;entryX=0.5;entryY=0;entryDx=0;entryDy=0;" edge="1" parent="MfNsAsNvm8OpWWt5l0zq-1" source="19G4RYxdpRGH6Uji1pxl-29" target="19G4RYxdpRGH6Uji1pxl-32">
          <mxGeometry width="50" height="50" relative="1" as="geometry">
            <mxPoint x="310" y="460" as="sourcePoint" />
            <mxPoint x="360" y="410" as="targetPoint" />
          </mxGeometry>
        </mxCell>
        <mxCell id="19G4RYxdpRGH6Uji1pxl-44" value="" style="endArrow=classic;html=1;fontSize=14;exitX=0.5;exitY=1;exitDx=0;exitDy=0;entryX=0.5;entryY=0;entryDx=0;entryDy=0;" edge="1" parent="MfNsAsNvm8OpWWt5l0zq-1" source="19G4RYxdpRGH6Uji1pxl-30" target="19G4RYxdpRGH6Uji1pxl-32">
          <mxGeometry width="50" height="50" relative="1" as="geometry">
            <mxPoint x="380" y="480" as="sourcePoint" />
            <mxPoint x="430" y="430" as="targetPoint" />
          </mxGeometry>
        </mxCell>
        <mxCell id="19G4RYxdpRGH6Uji1pxl-45" value="" style="endArrow=classic;html=1;fontSize=14;exitX=0.5;exitY=1;exitDx=0;exitDy=0;entryX=0.5;entryY=0;entryDx=0;entryDy=0;" edge="1" parent="MfNsAsNvm8OpWWt5l0zq-1" source="19G4RYxdpRGH6Uji1pxl-32" target="19G4RYxdpRGH6Uji1pxl-34">
          <mxGeometry width="50" height="50" relative="1" as="geometry">
            <mxPoint x="330" y="480" as="sourcePoint" />
            <mxPoint x="380" y="430" as="targetPoint" />
          </mxGeometry>
        </mxCell>
        <mxCell id="19G4RYxdpRGH6Uji1pxl-46" value="" style="endArrow=classic;html=1;fontSize=14;exitX=0.5;exitY=1;exitDx=0;exitDy=0;entryX=0.5;entryY=0;entryDx=0;entryDy=0;" edge="1" parent="MfNsAsNvm8OpWWt5l0zq-1" source="19G4RYxdpRGH6Uji1pxl-34" target="19G4RYxdpRGH6Uji1pxl-35">
          <mxGeometry width="50" height="50" relative="1" as="geometry">
            <mxPoint x="270" y="530" as="sourcePoint" />
            <mxPoint x="320" y="480" as="targetPoint" />
          </mxGeometry>
        </mxCell>
        <mxCell id="19G4RYxdpRGH6Uji1pxl-47" value="" style="endArrow=classic;html=1;fontSize=14;exitX=0.5;exitY=1;exitDx=0;exitDy=0;entryX=0.5;entryY=0;entryDx=0;entryDy=0;" edge="1" parent="MfNsAsNvm8OpWWt5l0zq-1" source="19G4RYxdpRGH6Uji1pxl-34" target="19G4RYxdpRGH6Uji1pxl-36">
          <mxGeometry width="50" height="50" relative="1" as="geometry">
            <mxPoint x="300" y="530" as="sourcePoint" />
            <mxPoint x="350" y="480" as="targetPoint" />
          </mxGeometry>
        </mxCell>
        <mxCell id="KwlTU0_Lm4_QspiHTdOu-0" value="AccumulatedGrad" style="ellipse;whiteSpace=wrap;html=1;strokeColor=#9673a6;fontSize=14;fillColor=#e1d5e7;" vertex="1" parent="MfNsAsNvm8OpWWt5l0zq-1">
          <mxGeometry x="540" y="410" width="160" height="40" as="geometry" />
        </mxCell>
        <mxCell id="KwlTU0_Lm4_QspiHTdOu-1" value="AccumulatedGrad" style="ellipse;whiteSpace=wrap;html=1;strokeColor=#9673a6;fontSize=14;fillColor=#e1d5e7;" vertex="1" parent="MfNsAsNvm8OpWWt5l0zq-1">
          <mxGeometry x="440" y="530" width="160" height="40" as="geometry" />
        </mxCell>
        <mxCell id="KwlTU0_Lm4_QspiHTdOu-2" value="" style="endArrow=classic;html=1;dashed=1;strokeWidth=1;fontSize=14;exitX=0.5;exitY=1;exitDx=0;exitDy=0;entryX=0;entryY=0;entryDx=0;entryDy=0;" edge="1" parent="MfNsAsNvm8OpWWt5l0zq-1" source="19G4RYxdpRGH6Uji1pxl-33" target="KwlTU0_Lm4_QspiHTdOu-0">
          <mxGeometry width="50" height="50" relative="1" as="geometry">
            <mxPoint x="240" y="550" as="sourcePoint" />
            <mxPoint x="290" y="500" as="targetPoint" />
          </mxGeometry>
        </mxCell>
        <mxCell id="KwlTU0_Lm4_QspiHTdOu-3" value="" style="endArrow=classic;html=1;dashed=1;strokeWidth=1;fontSize=14;exitX=0.5;exitY=1;exitDx=0;exitDy=0;" edge="1" parent="MfNsAsNvm8OpWWt5l0zq-1" source="19G4RYxdpRGH6Uji1pxl-36" target="KwlTU0_Lm4_QspiHTdOu-1">
          <mxGeometry width="50" height="50" relative="1" as="geometry">
            <mxPoint x="540" y="400" as="sourcePoint" />
            <mxPoint x="560" y="490" as="targetPoint" />
          </mxGeometry>
        </mxCell>
      </root>
    </mxGraphModel>
  </diagram>
  <diagram id="QE9q8GhHT20MTMAkTSXR" name="Page-3">
    <mxGraphModel dx="946" dy="613" grid="1" gridSize="10" guides="1" tooltips="1" connect="1" arrows="1" fold="1" page="1" pageScale="1" pageWidth="827" pageHeight="1169" math="0" shadow="0">
      <root>
        <mxCell id="lsKNDjV0ROQagWgrtZQK-0" />
        <mxCell id="lsKNDjV0ROQagWgrtZQK-1" parent="lsKNDjV0ROQagWgrtZQK-0" />
        <mxCell id="0iuZpMZkGm2oDAiLyNdq-0" value="a" style="text;html=1;fillColor=none;align=center;verticalAlign=middle;whiteSpace=wrap;rounded=0;strokeColor=#000000;fontSize=14;" vertex="1" parent="lsKNDjV0ROQagWgrtZQK-1">
          <mxGeometry x="100" y="100" width="30" height="30" as="geometry" />
        </mxCell>
        <mxCell id="0iuZpMZkGm2oDAiLyNdq-1" value="b" style="text;html=1;fillColor=none;align=center;verticalAlign=middle;whiteSpace=wrap;rounded=0;strokeColor=#000000;fontSize=14;" vertex="1" parent="lsKNDjV0ROQagWgrtZQK-1">
          <mxGeometry x="200" y="100" width="30" height="30" as="geometry" />
        </mxCell>
        <mxCell id="0iuZpMZkGm2oDAiLyNdq-2" value="x" style="text;html=1;fillColor=none;align=center;verticalAlign=middle;whiteSpace=wrap;rounded=0;strokeColor=#000000;fontSize=14;" vertex="1" parent="lsKNDjV0ROQagWgrtZQK-1">
          <mxGeometry x="150" y="220" width="30" height="30" as="geometry" />
        </mxCell>
        <mxCell id="0iuZpMZkGm2oDAiLyNdq-3" style="edgeStyle=orthogonalEdgeStyle;rounded=0;orthogonalLoop=1;jettySize=auto;html=1;exitX=0.5;exitY=1;exitDx=0;exitDy=0;fontSize=14;" edge="1" parent="lsKNDjV0ROQagWgrtZQK-1" source="0iuZpMZkGm2oDAiLyNdq-4" target="0iuZpMZkGm2oDAiLyNdq-2">
          <mxGeometry relative="1" as="geometry" />
        </mxCell>
        <mxCell id="0iuZpMZkGm2oDAiLyNdq-4" value="add" style="ellipse;whiteSpace=wrap;html=1;aspect=fixed;strokeColor=#b85450;fontSize=14;fillColor=#f8cecc;" vertex="1" parent="lsKNDjV0ROQagWgrtZQK-1">
          <mxGeometry x="140" y="147" width="50" height="50" as="geometry" />
        </mxCell>
        <mxCell id="0iuZpMZkGm2oDAiLyNdq-5" value="y" style="text;html=1;fillColor=none;align=center;verticalAlign=middle;whiteSpace=wrap;rounded=0;strokeColor=#000000;fontSize=14;" vertex="1" parent="lsKNDjV0ROQagWgrtZQK-1">
          <mxGeometry x="60" y="220" width="30" height="30" as="geometry" />
        </mxCell>
        <mxCell id="0iuZpMZkGm2oDAiLyNdq-6" value="z" style="text;html=1;fillColor=none;align=center;verticalAlign=middle;whiteSpace=wrap;rounded=0;strokeColor=#000000;fontSize=14;" vertex="1" parent="lsKNDjV0ROQagWgrtZQK-1">
          <mxGeometry x="240" y="220" width="30" height="30" as="geometry" />
        </mxCell>
        <mxCell id="0iuZpMZkGm2oDAiLyNdq-7" style="edgeStyle=orthogonalEdgeStyle;rounded=0;orthogonalLoop=1;jettySize=auto;html=1;exitX=0.5;exitY=1;exitDx=0;exitDy=0;entryX=0.5;entryY=0;entryDx=0;entryDy=0;fontSize=14;" edge="1" parent="lsKNDjV0ROQagWgrtZQK-1" source="0iuZpMZkGm2oDAiLyNdq-8" target="0iuZpMZkGm2oDAiLyNdq-11">
          <mxGeometry relative="1" as="geometry" />
        </mxCell>
        <mxCell id="0iuZpMZkGm2oDAiLyNdq-8" value="add" style="ellipse;whiteSpace=wrap;html=1;aspect=fixed;strokeColor=#b85450;fontSize=14;fillColor=#f8cecc;" vertex="1" parent="lsKNDjV0ROQagWgrtZQK-1">
          <mxGeometry x="90" y="280" width="50" height="50" as="geometry" />
        </mxCell>
        <mxCell id="0iuZpMZkGm2oDAiLyNdq-9" style="edgeStyle=orthogonalEdgeStyle;rounded=0;orthogonalLoop=1;jettySize=auto;html=1;exitX=0.5;exitY=1;exitDx=0;exitDy=0;entryX=0.5;entryY=0;entryDx=0;entryDy=0;fontSize=14;" edge="1" parent="lsKNDjV0ROQagWgrtZQK-1" source="0iuZpMZkGm2oDAiLyNdq-10" target="0iuZpMZkGm2oDAiLyNdq-12">
          <mxGeometry relative="1" as="geometry" />
        </mxCell>
        <mxCell id="0iuZpMZkGm2oDAiLyNdq-10" value="add" style="ellipse;whiteSpace=wrap;html=1;aspect=fixed;strokeColor=#b85450;fontSize=14;fillColor=#f8cecc;" vertex="1" parent="lsKNDjV0ROQagWgrtZQK-1">
          <mxGeometry x="190" y="280" width="50" height="50" as="geometry" />
        </mxCell>
        <mxCell id="0iuZpMZkGm2oDAiLyNdq-11" value="o1" style="text;html=1;fillColor=none;align=center;verticalAlign=middle;whiteSpace=wrap;rounded=0;strokeColor=#000000;fontSize=14;" vertex="1" parent="lsKNDjV0ROQagWgrtZQK-1">
          <mxGeometry x="100" y="360" width="30" height="30" as="geometry" />
        </mxCell>
        <mxCell id="0iuZpMZkGm2oDAiLyNdq-12" value="o2" style="text;html=1;fillColor=none;align=center;verticalAlign=middle;whiteSpace=wrap;rounded=0;strokeColor=#000000;fontSize=14;" vertex="1" parent="lsKNDjV0ROQagWgrtZQK-1">
          <mxGeometry x="200" y="360" width="30" height="30" as="geometry" />
        </mxCell>
        <mxCell id="0iuZpMZkGm2oDAiLyNdq-13" value="matmul" style="ellipse;whiteSpace=wrap;html=1;strokeColor=#b85450;fontSize=14;fillColor=#f8cecc;" vertex="1" parent="lsKNDjV0ROQagWgrtZQK-1">
          <mxGeometry x="120" y="410" width="90" height="40" as="geometry" />
        </mxCell>
        <mxCell id="0iuZpMZkGm2oDAiLyNdq-14" value="o" style="text;html=1;fillColor=none;align=center;verticalAlign=middle;whiteSpace=wrap;rounded=0;strokeColor=#000000;fontSize=14;" vertex="1" parent="lsKNDjV0ROQagWgrtZQK-1">
          <mxGeometry x="150" y="470" width="30" height="30" as="geometry" />
        </mxCell>
        <mxCell id="0iuZpMZkGm2oDAiLyNdq-15" value="" style="endArrow=classic;html=1;fontSize=14;exitX=0.5;exitY=1;exitDx=0;exitDy=0;entryX=0;entryY=0;entryDx=0;entryDy=0;" edge="1" parent="lsKNDjV0ROQagWgrtZQK-1" source="0iuZpMZkGm2oDAiLyNdq-0" target="0iuZpMZkGm2oDAiLyNdq-4">
          <mxGeometry width="50" height="50" relative="1" as="geometry">
            <mxPoint x="340" y="280" as="sourcePoint" />
            <mxPoint x="390" y="230" as="targetPoint" />
          </mxGeometry>
        </mxCell>
        <mxCell id="0iuZpMZkGm2oDAiLyNdq-16" value="" style="endArrow=classic;html=1;fontSize=14;exitX=0.5;exitY=1;exitDx=0;exitDy=0;entryX=1;entryY=0;entryDx=0;entryDy=0;" edge="1" parent="lsKNDjV0ROQagWgrtZQK-1" source="0iuZpMZkGm2oDAiLyNdq-1" target="0iuZpMZkGm2oDAiLyNdq-4">
          <mxGeometry width="50" height="50" relative="1" as="geometry">
            <mxPoint x="270" y="250" as="sourcePoint" />
            <mxPoint x="320" y="200" as="targetPoint" />
          </mxGeometry>
        </mxCell>
        <mxCell id="0iuZpMZkGm2oDAiLyNdq-17" value="" style="endArrow=classic;html=1;fontSize=14;exitX=0.5;exitY=1;exitDx=0;exitDy=0;entryX=0;entryY=0;entryDx=0;entryDy=0;" edge="1" parent="lsKNDjV0ROQagWgrtZQK-1" source="0iuZpMZkGm2oDAiLyNdq-5" target="0iuZpMZkGm2oDAiLyNdq-8">
          <mxGeometry width="50" height="50" relative="1" as="geometry">
            <mxPoint x="40" y="340" as="sourcePoint" />
            <mxPoint x="90" y="290" as="targetPoint" />
          </mxGeometry>
        </mxCell>
        <mxCell id="0iuZpMZkGm2oDAiLyNdq-18" value="" style="endArrow=classic;html=1;fontSize=14;exitX=0.5;exitY=1;exitDx=0;exitDy=0;entryX=1;entryY=0;entryDx=0;entryDy=0;" edge="1" parent="lsKNDjV0ROQagWgrtZQK-1" source="0iuZpMZkGm2oDAiLyNdq-2" target="0iuZpMZkGm2oDAiLyNdq-8">
          <mxGeometry width="50" height="50" relative="1" as="geometry">
            <mxPoint x="50" y="360" as="sourcePoint" />
            <mxPoint x="100" y="310" as="targetPoint" />
          </mxGeometry>
        </mxCell>
        <mxCell id="0iuZpMZkGm2oDAiLyNdq-19" value="" style="endArrow=classic;html=1;fontSize=14;exitX=0.5;exitY=1;exitDx=0;exitDy=0;" edge="1" parent="lsKNDjV0ROQagWgrtZQK-1" source="0iuZpMZkGm2oDAiLyNdq-2" target="0iuZpMZkGm2oDAiLyNdq-10">
          <mxGeometry width="50" height="50" relative="1" as="geometry">
            <mxPoint x="30" y="390" as="sourcePoint" />
            <mxPoint x="80" y="340" as="targetPoint" />
          </mxGeometry>
        </mxCell>
        <mxCell id="0iuZpMZkGm2oDAiLyNdq-20" value="" style="endArrow=classic;html=1;fontSize=14;exitX=0.5;exitY=1;exitDx=0;exitDy=0;" edge="1" parent="lsKNDjV0ROQagWgrtZQK-1" source="0iuZpMZkGm2oDAiLyNdq-6" target="0iuZpMZkGm2oDAiLyNdq-10">
          <mxGeometry width="50" height="50" relative="1" as="geometry">
            <mxPoint x="90" y="390" as="sourcePoint" />
            <mxPoint x="140" y="340" as="targetPoint" />
          </mxGeometry>
        </mxCell>
        <mxCell id="0iuZpMZkGm2oDAiLyNdq-21" value="" style="endArrow=classic;html=1;fontSize=14;exitX=0.5;exitY=1;exitDx=0;exitDy=0;entryX=0.227;entryY=0.054;entryDx=0;entryDy=0;entryPerimeter=0;" edge="1" parent="lsKNDjV0ROQagWgrtZQK-1" source="0iuZpMZkGm2oDAiLyNdq-11" target="0iuZpMZkGm2oDAiLyNdq-13">
          <mxGeometry width="50" height="50" relative="1" as="geometry">
            <mxPoint x="60" y="460" as="sourcePoint" />
            <mxPoint x="110" y="410" as="targetPoint" />
          </mxGeometry>
        </mxCell>
        <mxCell id="0iuZpMZkGm2oDAiLyNdq-22" value="" style="endArrow=classic;html=1;fontSize=14;exitX=0.5;exitY=1;exitDx=0;exitDy=0;" edge="1" parent="lsKNDjV0ROQagWgrtZQK-1" source="0iuZpMZkGm2oDAiLyNdq-12" target="0iuZpMZkGm2oDAiLyNdq-13">
          <mxGeometry width="50" height="50" relative="1" as="geometry">
            <mxPoint x="240" y="460" as="sourcePoint" />
            <mxPoint x="290" y="410" as="targetPoint" />
          </mxGeometry>
        </mxCell>
        <mxCell id="0iuZpMZkGm2oDAiLyNdq-23" value="" style="endArrow=classic;html=1;fontSize=14;exitX=0.5;exitY=1;exitDx=0;exitDy=0;" edge="1" parent="lsKNDjV0ROQagWgrtZQK-1" source="0iuZpMZkGm2oDAiLyNdq-13" target="0iuZpMZkGm2oDAiLyNdq-14">
          <mxGeometry width="50" height="50" relative="1" as="geometry">
            <mxPoint x="70" y="490" as="sourcePoint" />
            <mxPoint x="120" y="440" as="targetPoint" />
          </mxGeometry>
        </mxCell>
        <mxCell id="0iuZpMZkGm2oDAiLyNdq-24" style="edgeStyle=orthogonalEdgeStyle;rounded=0;orthogonalLoop=1;jettySize=auto;html=1;exitX=0.5;exitY=1;exitDx=0;exitDy=0;entryX=0.5;entryY=0;entryDx=0;entryDy=0;fontSize=14;" edge="1" parent="lsKNDjV0ROQagWgrtZQK-1" source="0iuZpMZkGm2oDAiLyNdq-25" target="0iuZpMZkGm2oDAiLyNdq-26">
          <mxGeometry relative="1" as="geometry" />
        </mxCell>
        <mxCell id="0iuZpMZkGm2oDAiLyNdq-25" value="o_g" style="text;html=1;fillColor=none;align=center;verticalAlign=middle;whiteSpace=wrap;rounded=0;strokeColor=#000000;fontSize=14;" vertex="1" parent="lsKNDjV0ROQagWgrtZQK-1">
          <mxGeometry x="410" y="100" width="40" height="30" as="geometry" />
        </mxCell>
        <mxCell id="0iuZpMZkGm2oDAiLyNdq-26" value="matmul_grad" style="ellipse;whiteSpace=wrap;html=1;strokeColor=#82b366;fontSize=14;fillColor=#d5e8d4;" vertex="1" parent="lsKNDjV0ROQagWgrtZQK-1">
          <mxGeometry x="379.5" y="152" width="101" height="40" as="geometry" />
        </mxCell>
        <mxCell id="0iuZpMZkGm2oDAiLyNdq-27" value="o1_g&lt;br&gt;" style="text;html=1;fillColor=none;align=center;verticalAlign=middle;whiteSpace=wrap;rounded=0;strokeColor=#000000;fontSize=14;" vertex="1" parent="lsKNDjV0ROQagWgrtZQK-1">
          <mxGeometry x="360" y="220" width="50" height="30" as="geometry" />
        </mxCell>
        <mxCell id="0iuZpMZkGm2oDAiLyNdq-28" value="o2_g" style="text;html=1;fillColor=none;align=center;verticalAlign=middle;whiteSpace=wrap;rounded=0;strokeColor=#000000;fontSize=14;" vertex="1" parent="lsKNDjV0ROQagWgrtZQK-1">
          <mxGeometry x="445" y="220" width="50" height="30" as="geometry" />
        </mxCell>
        <mxCell id="0iuZpMZkGm2oDAiLyNdq-29" value="add_grad" style="ellipse;whiteSpace=wrap;html=1;strokeColor=#82b366;fontSize=14;fillColor=#d5e8d4;" vertex="1" parent="lsKNDjV0ROQagWgrtZQK-1">
          <mxGeometry x="309" y="285" width="101" height="40" as="geometry" />
        </mxCell>
        <mxCell id="0iuZpMZkGm2oDAiLyNdq-30" value="add_grad" style="ellipse;whiteSpace=wrap;html=1;strokeColor=#82b366;fontSize=14;fillColor=#d5e8d4;" vertex="1" parent="lsKNDjV0ROQagWgrtZQK-1">
          <mxGeometry x="450" y="285" width="101" height="40" as="geometry" />
        </mxCell>
        <mxCell id="0iuZpMZkGm2oDAiLyNdq-31" value="y_g" style="text;html=1;fillColor=none;align=center;verticalAlign=middle;whiteSpace=wrap;rounded=0;strokeColor=#000000;fontSize=14;" vertex="1" parent="lsKNDjV0ROQagWgrtZQK-1">
          <mxGeometry x="310" y="360" width="40" height="30" as="geometry" />
        </mxCell>
        <mxCell id="0iuZpMZkGm2oDAiLyNdq-32" value="x_g" style="text;html=1;fillColor=#dae8fc;align=center;verticalAlign=middle;whiteSpace=wrap;rounded=0;strokeColor=#6c8ebf;fontSize=14;" vertex="1" parent="lsKNDjV0ROQagWgrtZQK-1">
          <mxGeometry x="410" y="390" width="40" height="30" as="geometry" />
        </mxCell>
        <mxCell id="0iuZpMZkGm2oDAiLyNdq-33" value="z_g" style="text;html=1;fillColor=none;align=center;verticalAlign=middle;whiteSpace=wrap;rounded=0;strokeColor=#000000;fontSize=14;" vertex="1" parent="lsKNDjV0ROQagWgrtZQK-1">
          <mxGeometry x="510" y="360" width="40" height="30" as="geometry" />
        </mxCell>
        <mxCell id="0iuZpMZkGm2oDAiLyNdq-34" value="add_grad" style="ellipse;whiteSpace=wrap;html=1;strokeColor=#82b366;fontSize=14;fillColor=#d5e8d4;" vertex="1" parent="lsKNDjV0ROQagWgrtZQK-1">
          <mxGeometry x="379.5" y="440" width="101" height="40" as="geometry" />
        </mxCell>
        <mxCell id="0iuZpMZkGm2oDAiLyNdq-35" value="a_g" style="text;html=1;fillColor=none;align=center;verticalAlign=middle;whiteSpace=wrap;rounded=0;strokeColor=#000000;fontSize=14;" vertex="1" parent="lsKNDjV0ROQagWgrtZQK-1">
          <mxGeometry x="370" y="500" width="40" height="30" as="geometry" />
        </mxCell>
        <mxCell id="0iuZpMZkGm2oDAiLyNdq-36" value="b_g" style="text;html=1;fillColor=none;align=center;verticalAlign=middle;whiteSpace=wrap;rounded=0;strokeColor=#000000;fontSize=14;" vertex="1" parent="lsKNDjV0ROQagWgrtZQK-1">
          <mxGeometry x="450" y="500" width="40" height="30" as="geometry" />
        </mxCell>
        <mxCell id="0iuZpMZkGm2oDAiLyNdq-37" value="" style="endArrow=classic;html=1;fontSize=14;exitX=0.5;exitY=1;exitDx=0;exitDy=0;entryX=0.5;entryY=0;entryDx=0;entryDy=0;" edge="1" parent="lsKNDjV0ROQagWgrtZQK-1" source="0iuZpMZkGm2oDAiLyNdq-26" target="0iuZpMZkGm2oDAiLyNdq-27">
          <mxGeometry width="50" height="50" relative="1" as="geometry">
            <mxPoint x="290" y="330" as="sourcePoint" />
            <mxPoint x="340" y="280" as="targetPoint" />
          </mxGeometry>
        </mxCell>
        <mxCell id="0iuZpMZkGm2oDAiLyNdq-38" value="" style="endArrow=classic;html=1;fontSize=14;exitX=0.5;exitY=1;exitDx=0;exitDy=0;entryX=0.5;entryY=0;entryDx=0;entryDy=0;" edge="1" parent="lsKNDjV0ROQagWgrtZQK-1" source="0iuZpMZkGm2oDAiLyNdq-26" target="0iuZpMZkGm2oDAiLyNdq-28">
          <mxGeometry width="50" height="50" relative="1" as="geometry">
            <mxPoint x="350" y="370" as="sourcePoint" />
            <mxPoint x="400" y="320" as="targetPoint" />
          </mxGeometry>
        </mxCell>
        <mxCell id="0iuZpMZkGm2oDAiLyNdq-39" value="" style="endArrow=classic;html=1;fontSize=14;exitX=0.5;exitY=1;exitDx=0;exitDy=0;entryX=0.5;entryY=0;entryDx=0;entryDy=0;" edge="1" parent="lsKNDjV0ROQagWgrtZQK-1" source="0iuZpMZkGm2oDAiLyNdq-27" target="0iuZpMZkGm2oDAiLyNdq-29">
          <mxGeometry width="50" height="50" relative="1" as="geometry">
            <mxPoint x="280" y="420" as="sourcePoint" />
            <mxPoint x="330" y="370" as="targetPoint" />
          </mxGeometry>
        </mxCell>
        <mxCell id="0iuZpMZkGm2oDAiLyNdq-40" value="" style="endArrow=classic;html=1;fontSize=14;exitX=0.5;exitY=1;exitDx=0;exitDy=0;entryX=0.5;entryY=0;entryDx=0;entryDy=0;" edge="1" parent="lsKNDjV0ROQagWgrtZQK-1" source="0iuZpMZkGm2oDAiLyNdq-28" target="0iuZpMZkGm2oDAiLyNdq-30">
          <mxGeometry width="50" height="50" relative="1" as="geometry">
            <mxPoint x="290" y="460" as="sourcePoint" />
            <mxPoint x="340" y="410" as="targetPoint" />
          </mxGeometry>
        </mxCell>
        <mxCell id="0iuZpMZkGm2oDAiLyNdq-41" value="" style="endArrow=classic;html=1;fontSize=14;exitX=0.5;exitY=1;exitDx=0;exitDy=0;entryX=0.5;entryY=0;entryDx=0;entryDy=0;" edge="1" parent="lsKNDjV0ROQagWgrtZQK-1" source="0iuZpMZkGm2oDAiLyNdq-29" target="0iuZpMZkGm2oDAiLyNdq-31">
          <mxGeometry width="50" height="50" relative="1" as="geometry">
            <mxPoint x="300" y="470" as="sourcePoint" />
            <mxPoint x="350" y="420" as="targetPoint" />
          </mxGeometry>
        </mxCell>
        <mxCell id="0iuZpMZkGm2oDAiLyNdq-42" value="" style="endArrow=classic;html=1;fontSize=14;exitX=0.5;exitY=1;exitDx=0;exitDy=0;entryX=0.5;entryY=0;entryDx=0;entryDy=0;" edge="1" parent="lsKNDjV0ROQagWgrtZQK-1" source="0iuZpMZkGm2oDAiLyNdq-30" target="0iuZpMZkGm2oDAiLyNdq-33">
          <mxGeometry width="50" height="50" relative="1" as="geometry">
            <mxPoint x="330" y="460" as="sourcePoint" />
            <mxPoint x="380" y="410" as="targetPoint" />
          </mxGeometry>
        </mxCell>
        <mxCell id="0iuZpMZkGm2oDAiLyNdq-43" value="" style="endArrow=classic;html=1;fontSize=14;exitX=0.5;exitY=1;exitDx=0;exitDy=0;entryX=0.5;entryY=0;entryDx=0;entryDy=0;" edge="1" parent="lsKNDjV0ROQagWgrtZQK-1" source="0iuZpMZkGm2oDAiLyNdq-29" target="0iuZpMZkGm2oDAiLyNdq-32">
          <mxGeometry width="50" height="50" relative="1" as="geometry">
            <mxPoint x="310" y="460" as="sourcePoint" />
            <mxPoint x="360" y="410" as="targetPoint" />
          </mxGeometry>
        </mxCell>
        <mxCell id="0iuZpMZkGm2oDAiLyNdq-44" value="" style="endArrow=classic;html=1;fontSize=14;exitX=0.5;exitY=1;exitDx=0;exitDy=0;entryX=0.5;entryY=0;entryDx=0;entryDy=0;" edge="1" parent="lsKNDjV0ROQagWgrtZQK-1" source="0iuZpMZkGm2oDAiLyNdq-30" target="0iuZpMZkGm2oDAiLyNdq-32">
          <mxGeometry width="50" height="50" relative="1" as="geometry">
            <mxPoint x="380" y="480" as="sourcePoint" />
            <mxPoint x="430" y="430" as="targetPoint" />
          </mxGeometry>
        </mxCell>
        <mxCell id="0iuZpMZkGm2oDAiLyNdq-45" value="" style="endArrow=classic;html=1;fontSize=14;exitX=0.5;exitY=1;exitDx=0;exitDy=0;entryX=0.5;entryY=0;entryDx=0;entryDy=0;" edge="1" parent="lsKNDjV0ROQagWgrtZQK-1" source="0iuZpMZkGm2oDAiLyNdq-32" target="0iuZpMZkGm2oDAiLyNdq-34">
          <mxGeometry width="50" height="50" relative="1" as="geometry">
            <mxPoint x="330" y="510" as="sourcePoint" />
            <mxPoint x="380" y="460" as="targetPoint" />
          </mxGeometry>
        </mxCell>
        <mxCell id="0iuZpMZkGm2oDAiLyNdq-46" value="" style="endArrow=classic;html=1;fontSize=14;exitX=0.5;exitY=1;exitDx=0;exitDy=0;entryX=0.5;entryY=0;entryDx=0;entryDy=0;" edge="1" parent="lsKNDjV0ROQagWgrtZQK-1" source="0iuZpMZkGm2oDAiLyNdq-34" target="0iuZpMZkGm2oDAiLyNdq-35">
          <mxGeometry width="50" height="50" relative="1" as="geometry">
            <mxPoint x="270" y="560" as="sourcePoint" />
            <mxPoint x="320" y="510" as="targetPoint" />
          </mxGeometry>
        </mxCell>
        <mxCell id="0iuZpMZkGm2oDAiLyNdq-47" value="" style="endArrow=classic;html=1;fontSize=14;exitX=0.5;exitY=1;exitDx=0;exitDy=0;entryX=0.5;entryY=0;entryDx=0;entryDy=0;" edge="1" parent="lsKNDjV0ROQagWgrtZQK-1" source="0iuZpMZkGm2oDAiLyNdq-34" target="0iuZpMZkGm2oDAiLyNdq-36">
          <mxGeometry width="50" height="50" relative="1" as="geometry">
            <mxPoint x="300" y="560" as="sourcePoint" />
            <mxPoint x="350" y="510" as="targetPoint" />
          </mxGeometry>
        </mxCell>
        <mxCell id="RRtAHVXBcPcLf0nrsRBA-0" value="o2.register_hook" style="rounded=1;whiteSpace=wrap;html=1;strokeColor=#000000;fontSize=14;" vertex="1" parent="lsKNDjV0ROQagWgrtZQK-1">
          <mxGeometry x="530.5" y="245" width="140" height="35" as="geometry" />
        </mxCell>
        <mxCell id="RRtAHVXBcPcLf0nrsRBA-1" value="" style="endArrow=classic;html=1;dashed=1;strokeWidth=1;fontSize=14;exitX=0;exitY=0.5;exitDx=0;exitDy=0;" edge="1" parent="lsKNDjV0ROQagWgrtZQK-1" source="RRtAHVXBcPcLf0nrsRBA-0">
          <mxGeometry width="50" height="50" relative="1" as="geometry">
            <mxPoint x="390.5" y="345" as="sourcePoint" />
            <mxPoint x="480.5" y="265" as="targetPoint" />
            <Array as="points" />
          </mxGeometry>
        </mxCell>
        <mxCell id="RRtAHVXBcPcLf0nrsRBA-2" value="x_g" style="text;html=1;fillColor=#ffe6cc;align=center;verticalAlign=middle;whiteSpace=wrap;rounded=0;strokeColor=#d79b00;fontSize=14;" vertex="1" parent="lsKNDjV0ROQagWgrtZQK-1">
          <mxGeometry x="374" y="340" width="40" height="30" as="geometry" />
        </mxCell>
        <mxCell id="RRtAHVXBcPcLf0nrsRBA-3" value="x_g" style="text;html=1;fillColor=#ffe6cc;align=center;verticalAlign=middle;whiteSpace=wrap;rounded=0;strokeColor=#d79b00;fontSize=14;" vertex="1" parent="lsKNDjV0ROQagWgrtZQK-1">
          <mxGeometry x="450" y="340" width="40" height="30" as="geometry" />
        </mxCell>
        <mxCell id="RRtAHVXBcPcLf0nrsRBA-4" value="x.register_hook" style="rounded=1;whiteSpace=wrap;html=1;strokeColor=#000000;fontSize=14;" vertex="1" parent="lsKNDjV0ROQagWgrtZQK-1">
          <mxGeometry x="520" y="412.5" width="130" height="35" as="geometry" />
        </mxCell>
        <mxCell id="RRtAHVXBcPcLf0nrsRBA-5" value="" style="endArrow=classic;html=1;dashed=1;strokeWidth=1;fontSize=14;exitX=0;exitY=0.5;exitDx=0;exitDy=0;" edge="1" parent="lsKNDjV0ROQagWgrtZQK-1">
          <mxGeometry width="50" height="50" relative="1" as="geometry">
            <mxPoint x="520" y="428.75" as="sourcePoint" />
            <mxPoint x="430" y="431" as="targetPoint" />
            <Array as="points" />
          </mxGeometry>
        </mxCell>
        <mxCell id="L8_E63IR_OLMA50MOUjO-0" value="AccumulatedGrad" style="ellipse;whiteSpace=wrap;html=1;strokeColor=#9673a6;fontSize=14;fillColor=#e1d5e7;" vertex="1" parent="lsKNDjV0ROQagWgrtZQK-1">
          <mxGeometry x="480.5" y="545" width="160" height="40" as="geometry" />
        </mxCell>
        <mxCell id="2-8TodQaJmPhwvi1vBnC-0" value="" style="endArrow=classic;html=1;dashed=1;strokeWidth=1;fontSize=14;exitX=0.5;exitY=1;exitDx=0;exitDy=0;" edge="1" parent="lsKNDjV0ROQagWgrtZQK-1" source="0iuZpMZkGm2oDAiLyNdq-36" target="L8_E63IR_OLMA50MOUjO-0">
          <mxGeometry width="50" height="50" relative="1" as="geometry">
            <mxPoint x="470" y="500" as="sourcePoint" />
            <mxPoint x="500.5971499970933" y="530.5971499970933" as="targetPoint" />
          </mxGeometry>
        </mxCell>
        <mxCell id="2-8TodQaJmPhwvi1vBnC-1" value="b.register_hook" style="rounded=1;whiteSpace=wrap;html=1;strokeColor=#000000;fontSize=14;" vertex="1" parent="lsKNDjV0ROQagWgrtZQK-1">
          <mxGeometry x="630" y="490" width="130" height="35" as="geometry" />
        </mxCell>
        <mxCell id="2-8TodQaJmPhwvi1vBnC-2" value="" style="endArrow=classic;html=1;dashed=1;strokeWidth=1;fontSize=14;exitX=0;exitY=0.5;exitDx=0;exitDy=0;entryX=0.684;entryY=0.125;entryDx=0;entryDy=0;entryPerimeter=0;" edge="1" parent="lsKNDjV0ROQagWgrtZQK-1" source="2-8TodQaJmPhwvi1vBnC-1" target="L8_E63IR_OLMA50MOUjO-0">
          <mxGeometry width="50" height="50" relative="1" as="geometry">
            <mxPoint x="530" y="438.75" as="sourcePoint" />
            <mxPoint x="440" y="441" as="targetPoint" />
            <Array as="points" />
          </mxGeometry>
        </mxCell>
      </root>
    </mxGraphModel>
  </diagram>
  <diagram id="sg74sg5aD_UceVZNRVIm" name="Page-4">
    <mxGraphModel dx="946" dy="613" grid="1" gridSize="10" guides="1" tooltips="1" connect="1" arrows="1" fold="1" page="1" pageScale="1" pageWidth="827" pageHeight="1169" math="0" shadow="0">
      <root>
        <mxCell id="7qJ5aX89iTAGZ7tVGA2j-0" />
        <mxCell id="7qJ5aX89iTAGZ7tVGA2j-1" parent="7qJ5aX89iTAGZ7tVGA2j-0" />
        <mxCell id="xizhLEu-Nt7eMXENYNZ6-20" style="edgeStyle=orthogonalEdgeStyle;rounded=0;orthogonalLoop=1;jettySize=auto;html=1;exitX=0.5;exitY=1;exitDx=0;exitDy=0;entryX=0.5;entryY=0;entryDx=0;entryDy=0;dashed=1;endArrow=classic;endFill=1;strokeWidth=1;fontSize=14;" edge="1" parent="7qJ5aX89iTAGZ7tVGA2j-1" source="xizhLEu-Nt7eMXENYNZ6-0" target="xizhLEu-Nt7eMXENYNZ6-15">
          <mxGeometry relative="1" as="geometry" />
        </mxCell>
        <mxCell id="xizhLEu-Nt7eMXENYNZ6-0" value="x_g" style="text;html=1;fillColor=#dae8fc;align=center;verticalAlign=middle;whiteSpace=wrap;rounded=0;strokeColor=#6c8ebf;fontSize=14;" vertex="1" parent="7qJ5aX89iTAGZ7tVGA2j-1">
          <mxGeometry x="306" y="220" width="40" height="30" as="geometry" />
        </mxCell>
        <mxCell id="xizhLEu-Nt7eMXENYNZ6-1" value="x_g" style="text;html=1;fillColor=#ffe6cc;align=center;verticalAlign=middle;whiteSpace=wrap;rounded=0;strokeColor=#d79b00;fontSize=14;" vertex="1" parent="7qJ5aX89iTAGZ7tVGA2j-1">
          <mxGeometry x="270" y="170" width="40" height="30" as="geometry" />
        </mxCell>
        <mxCell id="xizhLEu-Nt7eMXENYNZ6-2" value="x_g" style="text;html=1;fillColor=#ffe6cc;align=center;verticalAlign=middle;whiteSpace=wrap;rounded=0;strokeColor=#d79b00;fontSize=14;" vertex="1" parent="7qJ5aX89iTAGZ7tVGA2j-1">
          <mxGeometry x="346" y="170" width="40" height="30" as="geometry" />
        </mxCell>
        <mxCell id="xizhLEu-Nt7eMXENYNZ6-3" value="" style="endArrow=classic;html=1;dashed=1;strokeWidth=1;fontSize=14;exitX=0.5;exitY=1;exitDx=0;exitDy=0;entryX=0.5;entryY=0;entryDx=0;entryDy=0;" edge="1" parent="7qJ5aX89iTAGZ7tVGA2j-1" source="xizhLEu-Nt7eMXENYNZ6-1" target="xizhLEu-Nt7eMXENYNZ6-0">
          <mxGeometry width="50" height="50" relative="1" as="geometry">
            <mxPoint x="180" y="370" as="sourcePoint" />
            <mxPoint x="230" y="320" as="targetPoint" />
          </mxGeometry>
        </mxCell>
        <mxCell id="xizhLEu-Nt7eMXENYNZ6-4" value="" style="endArrow=classic;html=1;dashed=1;strokeWidth=1;fontSize=14;exitX=0.5;exitY=1;exitDx=0;exitDy=0;entryX=0.5;entryY=0;entryDx=0;entryDy=0;" edge="1" parent="7qJ5aX89iTAGZ7tVGA2j-1" source="xizhLEu-Nt7eMXENYNZ6-2" target="xizhLEu-Nt7eMXENYNZ6-0">
          <mxGeometry width="50" height="50" relative="1" as="geometry">
            <mxPoint x="300" y="210" as="sourcePoint" />
            <mxPoint x="336" y="230" as="targetPoint" />
          </mxGeometry>
        </mxCell>
        <mxCell id="xizhLEu-Nt7eMXENYNZ6-5" value="batch内某参数梯度累加" style="text;html=1;strokeColor=none;fillColor=none;align=center;verticalAlign=middle;whiteSpace=wrap;rounded=0;fontSize=14;" vertex="1" parent="7qJ5aX89iTAGZ7tVGA2j-1">
          <mxGeometry x="40" y="200" width="170" height="20" as="geometry" />
        </mxCell>
        <mxCell id="xizhLEu-Nt7eMXENYNZ6-6" value="执行该Var注册的hook" style="text;html=1;strokeColor=none;fillColor=none;align=center;verticalAlign=middle;whiteSpace=wrap;rounded=0;fontSize=14;" vertex="1" parent="7qJ5aX89iTAGZ7tVGA2j-1">
          <mxGeometry x="40" y="310" width="170" height="20" as="geometry" />
        </mxCell>
        <mxCell id="xizhLEu-Nt7eMXENYNZ6-7" value="call hooks" style="rounded=0;whiteSpace=wrap;html=1;strokeColor=#82b366;fontSize=14;fillColor=#d5e8d4;" vertex="1" parent="7qJ5aX89iTAGZ7tVGA2j-1">
          <mxGeometry x="271" y="300" width="110" height="40" as="geometry" />
        </mxCell>
        <mxCell id="xizhLEu-Nt7eMXENYNZ6-8" value="跨batch梯度累加" style="text;html=1;strokeColor=none;fillColor=none;align=center;verticalAlign=middle;whiteSpace=wrap;rounded=0;fontSize=14;" vertex="1" parent="7qJ5aX89iTAGZ7tVGA2j-1">
          <mxGeometry x="40" y="400" width="170" height="20" as="geometry" />
        </mxCell>
        <mxCell id="xizhLEu-Nt7eMXENYNZ6-10" value="old_x_g" style="text;html=1;fillColor=#f8cecc;align=center;verticalAlign=middle;whiteSpace=wrap;rounded=0;strokeColor=#b85450;fontSize=14;" vertex="1" parent="7qJ5aX89iTAGZ7tVGA2j-1">
          <mxGeometry x="250.5" y="395" width="79" height="30" as="geometry" />
        </mxCell>
        <mxCell id="xizhLEu-Nt7eMXENYNZ6-12" style="edgeStyle=orthogonalEdgeStyle;rounded=0;orthogonalLoop=1;jettySize=auto;html=1;exitX=0;exitY=0.5;exitDx=0;exitDy=0;dashed=1;endArrow=classic;endFill=1;strokeWidth=1;fontSize=14;" edge="1" parent="7qJ5aX89iTAGZ7tVGA2j-1" source="xizhLEu-Nt7eMXENYNZ6-11">
          <mxGeometry relative="1" as="geometry">
            <mxPoint x="330" y="410" as="targetPoint" />
          </mxGeometry>
        </mxCell>
        <mxCell id="xizhLEu-Nt7eMXENYNZ6-11" value="x_g" style="text;html=1;fillColor=#dae8fc;align=center;verticalAlign=middle;whiteSpace=wrap;rounded=0;strokeColor=#6c8ebf;fontSize=14;" vertex="1" parent="7qJ5aX89iTAGZ7tVGA2j-1">
          <mxGeometry x="360" y="395" width="40" height="30" as="geometry" />
        </mxCell>
        <mxCell id="xizhLEu-Nt7eMXENYNZ6-13" value="多卡reduce" style="text;html=1;strokeColor=none;fillColor=none;align=center;verticalAlign=middle;whiteSpace=wrap;rounded=0;fontSize=14;" vertex="1" parent="7qJ5aX89iTAGZ7tVGA2j-1">
          <mxGeometry x="40" y="480" width="170" height="20" as="geometry" />
        </mxCell>
        <mxCell id="xizhLEu-Nt7eMXENYNZ6-14" value="reduce hook" style="rounded=0;whiteSpace=wrap;html=1;strokeColor=#82b366;fontSize=14;fillColor=#d5e8d4;" vertex="1" parent="7qJ5aX89iTAGZ7tVGA2j-1">
          <mxGeometry x="271" y="470" width="110" height="40" as="geometry" />
        </mxCell>
        <mxCell id="xizhLEu-Nt7eMXENYNZ6-21" style="edgeStyle=orthogonalEdgeStyle;rounded=0;orthogonalLoop=1;jettySize=auto;html=1;exitX=0.5;exitY=1;exitDx=0;exitDy=0;entryX=0.5;entryY=0;entryDx=0;entryDy=0;dashed=1;endArrow=classic;endFill=1;strokeWidth=1;fontSize=14;" edge="1" parent="7qJ5aX89iTAGZ7tVGA2j-1" source="xizhLEu-Nt7eMXENYNZ6-15" target="xizhLEu-Nt7eMXENYNZ6-14">
          <mxGeometry relative="1" as="geometry" />
        </mxCell>
        <mxCell id="xizhLEu-Nt7eMXENYNZ6-15" value="" style="rounded=0;whiteSpace=wrap;html=1;strokeColor=#000000;fontSize=14;fillColor=none;dashed=1;" vertex="1" parent="7qJ5aX89iTAGZ7tVGA2j-1">
          <mxGeometry x="230" y="280" width="190" height="170" as="geometry" />
        </mxCell>
        <mxCell id="xizhLEu-Nt7eMXENYNZ6-16" value="AccumulateGrad Node" style="text;html=1;strokeColor=none;fillColor=none;align=center;verticalAlign=middle;whiteSpace=wrap;rounded=0;dashed=1;fontSize=14;" vertex="1" parent="7qJ5aX89iTAGZ7tVGA2j-1">
          <mxGeometry x="400" y="260" width="94" height="20" as="geometry" />
        </mxCell>
        <mxCell id="xizhLEu-Nt7eMXENYNZ6-18" value="Post Hook" style="text;html=1;strokeColor=none;fillColor=none;align=center;verticalAlign=middle;whiteSpace=wrap;rounded=0;dashed=1;fontSize=14;" vertex="1" parent="7qJ5aX89iTAGZ7tVGA2j-1">
          <mxGeometry x="381" y="480" width="110" height="20" as="geometry" />
        </mxCell>
      </root>
    </mxGraphModel>
  </diagram>
  <diagram id="c3RULda5jXg4Q_kd357b" name="Page-5">
    <mxGraphModel dx="946" dy="613" grid="1" gridSize="10" guides="1" tooltips="1" connect="1" arrows="1" fold="1" page="1" pageScale="1" pageWidth="827" pageHeight="1169" math="0" shadow="0">
      <root>
        <mxCell id="EkxN6pyKObYtHaumg2W5-0" />
        <mxCell id="EkxN6pyKObYtHaumg2W5-1" parent="EkxN6pyKObYtHaumg2W5-0" />
        <mxCell id="EkxN6pyKObYtHaumg2W5-2" value="动态图逻辑简图" style="text;html=1;strokeColor=none;fillColor=none;align=center;verticalAlign=middle;whiteSpace=wrap;rounded=0;dashed=1;fontSize=14;" vertex="1" parent="EkxN6pyKObYtHaumg2W5-1">
          <mxGeometry x="120" y="130" width="140" height="20" as="geometry" />
        </mxCell>
        <mxCell id="EkxN6pyKObYtHaumg2W5-3" value="前向" style="text;html=1;strokeColor=none;fillColor=none;align=center;verticalAlign=middle;whiteSpace=wrap;rounded=0;dashed=1;fontSize=14;" vertex="1" parent="EkxN6pyKObYtHaumg2W5-1">
          <mxGeometry x="140" y="180" width="40" height="20" as="geometry" />
        </mxCell>
        <mxCell id="EkxN6pyKObYtHaumg2W5-4" value="反向" style="text;html=1;strokeColor=none;fillColor=none;align=center;verticalAlign=middle;whiteSpace=wrap;rounded=0;dashed=1;fontSize=14;" vertex="1" parent="EkxN6pyKObYtHaumg2W5-1">
          <mxGeometry x="140" y="490" width="40" height="20" as="geometry" />
        </mxCell>
        <mxCell id="EkxN6pyKObYtHaumg2W5-5" value="" style="rounded=0;whiteSpace=wrap;html=1;strokeColor=#000000;fillColor=none;fontSize=14;" vertex="1" parent="EkxN6pyKObYtHaumg2W5-1">
          <mxGeometry x="140" y="220" width="230" height="250" as="geometry" />
        </mxCell>
        <mxCell id="EkxN6pyKObYtHaumg2W5-6" value="Tracer" style="text;html=1;strokeColor=none;fillColor=none;align=center;verticalAlign=middle;whiteSpace=wrap;rounded=0;fontSize=14;" vertex="1" parent="EkxN6pyKObYtHaumg2W5-1">
          <mxGeometry x="160" y="234" width="40" height="20" as="geometry" />
        </mxCell>
        <mxCell id="EkxN6pyKObYtHaumg2W5-7" value="OpBase(ins(&lt;b&gt;VarBase&lt;/b&gt;...), outs(VarBase...), ...)" style="text;html=1;strokeColor=#b85450;fillColor=#f8cecc;align=center;verticalAlign=middle;whiteSpace=wrap;rounded=0;fontSize=14;" vertex="1" parent="EkxN6pyKObYtHaumg2W5-1">
          <mxGeometry x="165" y="270" width="175" height="40" as="geometry" />
        </mxCell>
        <mxCell id="EkxN6pyKObYtHaumg2W5-8" value="OpBase(ins(VarBase...), outs(VarBase...), ...)" style="text;html=1;strokeColor=#b85450;fillColor=#f8cecc;align=center;verticalAlign=middle;whiteSpace=wrap;rounded=0;fontSize=14;" vertex="1" parent="EkxN6pyKObYtHaumg2W5-1">
          <mxGeometry x="165" y="330" width="175" height="40" as="geometry" />
        </mxCell>
        <mxCell id="EkxN6pyKObYtHaumg2W5-9" value="OpBase(ins(VarBase...), outs(VarBase...), ...)" style="text;html=1;strokeColor=#b85450;fillColor=#f8cecc;align=center;verticalAlign=middle;whiteSpace=wrap;rounded=0;fontSize=14;" vertex="1" parent="EkxN6pyKObYtHaumg2W5-1">
          <mxGeometry x="165" y="390" width="175" height="40" as="geometry" />
        </mxCell>
        <mxCell id="EkxN6pyKObYtHaumg2W5-10" value="......" style="text;html=1;strokeColor=none;fillColor=none;align=center;verticalAlign=middle;whiteSpace=wrap;rounded=0;fontSize=14;" vertex="1" parent="EkxN6pyKObYtHaumg2W5-1">
          <mxGeometry x="220" y="440" width="40" height="20" as="geometry" />
        </mxCell>
        <mxCell id="EkxN6pyKObYtHaumg2W5-11" value="" style="rounded=0;whiteSpace=wrap;html=1;strokeColor=#000000;fillColor=none;fontSize=14;" vertex="1" parent="EkxN6pyKObYtHaumg2W5-1">
          <mxGeometry x="140" y="530" width="270" height="250" as="geometry" />
        </mxCell>
        <mxCell id="EkxN6pyKObYtHaumg2W5-12" value="Engine" style="text;html=1;strokeColor=none;fillColor=none;align=center;verticalAlign=middle;whiteSpace=wrap;rounded=0;fontSize=14;" vertex="1" parent="EkxN6pyKObYtHaumg2W5-1">
          <mxGeometry x="160" y="544" width="40" height="20" as="geometry" />
        </mxCell>
        <mxCell id="EkxN6pyKObYtHaumg2W5-13" value="OpBase(ins(VariableWrapper...), outs(VariableWrapper...), ...)" style="text;html=1;strokeColor=#82b366;fillColor=#d5e8d4;align=center;verticalAlign=middle;whiteSpace=wrap;rounded=0;fontSize=14;" vertex="1" parent="EkxN6pyKObYtHaumg2W5-1">
          <mxGeometry x="165" y="580" width="225" height="40" as="geometry" />
        </mxCell>
        <mxCell id="EkxN6pyKObYtHaumg2W5-16" value="......" style="text;html=1;strokeColor=none;fillColor=none;align=center;verticalAlign=middle;whiteSpace=wrap;rounded=0;fontSize=14;" vertex="1" parent="EkxN6pyKObYtHaumg2W5-1">
          <mxGeometry x="220" y="750" width="40" height="20" as="geometry" />
        </mxCell>
        <mxCell id="EkxN6pyKObYtHaumg2W5-17" value="OpBase(ins(VariableWrapper...), outs(VariableWrapper...), ...)" style="text;html=1;strokeColor=#82b366;fillColor=#d5e8d4;align=center;verticalAlign=middle;whiteSpace=wrap;rounded=0;fontSize=14;" vertex="1" parent="EkxN6pyKObYtHaumg2W5-1">
          <mxGeometry x="165" y="640" width="225" height="40" as="geometry" />
        </mxCell>
        <mxCell id="EkxN6pyKObYtHaumg2W5-18" value="OpBase(ins(VariableWrapper...), outs(VariableWrapper...), ...)" style="text;html=1;strokeColor=#82b366;fillColor=#d5e8d4;align=center;verticalAlign=middle;whiteSpace=wrap;rounded=0;fontSize=14;" vertex="1" parent="EkxN6pyKObYtHaumg2W5-1">
          <mxGeometry x="165" y="700" width="225" height="40" as="geometry" />
        </mxCell>
        <mxCell id="EkxN6pyKObYtHaumg2W5-25" style="edgeStyle=orthogonalEdgeStyle;rounded=0;orthogonalLoop=1;jettySize=auto;html=1;exitX=0;exitY=0.5;exitDx=0;exitDy=0;entryX=1;entryY=0.5;entryDx=0;entryDy=0;endArrow=classic;endFill=1;strokeWidth=1;fontSize=14;" edge="1" parent="EkxN6pyKObYtHaumg2W5-1" source="EkxN6pyKObYtHaumg2W5-19" target="EkxN6pyKObYtHaumg2W5-20">
          <mxGeometry relative="1" as="geometry" />
        </mxCell>
        <mxCell id="EkxN6pyKObYtHaumg2W5-19" value="记录Hooks&lt;br&gt;- OpBasePreHooks&lt;br&gt;- GradAccumulaterPostHook" style="text;html=1;strokeColor=none;fillColor=none;align=left;verticalAlign=middle;whiteSpace=wrap;rounded=0;fontSize=14;" vertex="1" parent="EkxN6pyKObYtHaumg2W5-1">
          <mxGeometry x="610" y="245" width="200" height="90" as="geometry" />
        </mxCell>
        <mxCell id="EkxN6pyKObYtHaumg2W5-20" value="VariableWrapper" style="rounded=0;whiteSpace=wrap;html=1;strokeColor=#000000;fillColor=none;fontSize=14;" vertex="1" parent="EkxN6pyKObYtHaumg2W5-1">
          <mxGeometry x="435" y="270" width="130" height="40" as="geometry" />
        </mxCell>
        <mxCell id="EkxN6pyKObYtHaumg2W5-24" value="" style="edgeStyle=orthogonalEdgeStyle;rounded=0;orthogonalLoop=1;jettySize=auto;html=1;endArrow=classic;endFill=1;strokeWidth=1;fontSize=14;" edge="1" parent="EkxN6pyKObYtHaumg2W5-1" source="EkxN6pyKObYtHaumg2W5-22" target="EkxN6pyKObYtHaumg2W5-20">
          <mxGeometry relative="1" as="geometry" />
        </mxCell>
        <mxCell id="EkxN6pyKObYtHaumg2W5-22" value="GradVarBase" style="rounded=0;whiteSpace=wrap;html=1;strokeColor=#000000;fillColor=none;fontSize=14;" vertex="1" parent="EkxN6pyKObYtHaumg2W5-1">
          <mxGeometry x="440" y="207.5" width="120" height="35" as="geometry" />
        </mxCell>
        <mxCell id="EkxN6pyKObYtHaumg2W5-23" value="" style="endArrow=classic;html=1;strokeWidth=1;fontSize=14;exitX=0.75;exitY=0;exitDx=0;exitDy=0;entryX=0;entryY=0.5;entryDx=0;entryDy=0;" edge="1" parent="EkxN6pyKObYtHaumg2W5-1" source="EkxN6pyKObYtHaumg2W5-7" target="EkxN6pyKObYtHaumg2W5-22">
          <mxGeometry width="50" height="50" relative="1" as="geometry">
            <mxPoint x="390" y="420" as="sourcePoint" />
            <mxPoint x="440" y="370" as="targetPoint" />
          </mxGeometry>
        </mxCell>
      </root>
    </mxGraphModel>
  </diagram>
  <diagram id="tlGhgrLrvMCsmKQYUT3f" name="Page-6">
    <mxGraphModel dx="946" dy="613" grid="1" gridSize="10" guides="1" tooltips="1" connect="1" arrows="1" fold="1" page="1" pageScale="1" pageWidth="827" pageHeight="1169" math="0" shadow="0">
      <root>
        <mxCell id="_cg74oSpWAH4K66VKZ7w-0" />
        <mxCell id="_cg74oSpWAH4K66VKZ7w-1" parent="_cg74oSpWAH4K66VKZ7w-0" />
        <mxCell id="_cg74oSpWAH4K66VKZ7w-18" value="" style="rounded=0;whiteSpace=wrap;html=1;strokeColor=#000000;fontSize=14;fillColor=none;dashed=1;" vertex="1" parent="_cg74oSpWAH4K66VKZ7w-1">
          <mxGeometry x="230" y="140" width="210" height="400" as="geometry" />
        </mxCell>
        <mxCell id="_cg74oSpWAH4K66VKZ7w-3" value="x_g" style="text;html=1;fillColor=#dae8fc;align=center;verticalAlign=middle;whiteSpace=wrap;rounded=0;strokeColor=#6c8ebf;fontSize=14;" vertex="1" parent="_cg74oSpWAH4K66VKZ7w-1">
          <mxGeometry x="306" y="220" width="40" height="30" as="geometry" />
        </mxCell>
        <mxCell id="_cg74oSpWAH4K66VKZ7w-4" value="x_g" style="text;html=1;fillColor=#ffe6cc;align=center;verticalAlign=middle;whiteSpace=wrap;rounded=0;strokeColor=#d79b00;fontSize=14;" vertex="1" parent="_cg74oSpWAH4K66VKZ7w-1">
          <mxGeometry x="270" y="170" width="40" height="30" as="geometry" />
        </mxCell>
        <mxCell id="_cg74oSpWAH4K66VKZ7w-5" value="x_g" style="text;html=1;fillColor=#ffe6cc;align=center;verticalAlign=middle;whiteSpace=wrap;rounded=0;strokeColor=#d79b00;fontSize=14;" vertex="1" parent="_cg74oSpWAH4K66VKZ7w-1">
          <mxGeometry x="346" y="170" width="40" height="30" as="geometry" />
        </mxCell>
        <mxCell id="_cg74oSpWAH4K66VKZ7w-6" value="" style="endArrow=classic;html=1;dashed=1;strokeWidth=1;fontSize=14;exitX=0.5;exitY=1;exitDx=0;exitDy=0;entryX=0.5;entryY=0;entryDx=0;entryDy=0;" edge="1" parent="_cg74oSpWAH4K66VKZ7w-1" source="_cg74oSpWAH4K66VKZ7w-4" target="_cg74oSpWAH4K66VKZ7w-3">
          <mxGeometry width="50" height="50" relative="1" as="geometry">
            <mxPoint x="180" y="370" as="sourcePoint" />
            <mxPoint x="230" y="320" as="targetPoint" />
          </mxGeometry>
        </mxCell>
        <mxCell id="_cg74oSpWAH4K66VKZ7w-7" value="" style="endArrow=classic;html=1;dashed=1;strokeWidth=1;fontSize=14;exitX=0.5;exitY=1;exitDx=0;exitDy=0;entryX=0.5;entryY=0;entryDx=0;entryDy=0;" edge="1" parent="_cg74oSpWAH4K66VKZ7w-1" source="_cg74oSpWAH4K66VKZ7w-5" target="_cg74oSpWAH4K66VKZ7w-3">
          <mxGeometry width="50" height="50" relative="1" as="geometry">
            <mxPoint x="300" y="210" as="sourcePoint" />
            <mxPoint x="336" y="230" as="targetPoint" />
          </mxGeometry>
        </mxCell>
        <mxCell id="_cg74oSpWAH4K66VKZ7w-8" value="batch内某参数梯度累加" style="text;html=1;strokeColor=none;fillColor=none;align=center;verticalAlign=middle;whiteSpace=wrap;rounded=0;fontSize=14;" vertex="1" parent="_cg74oSpWAH4K66VKZ7w-1">
          <mxGeometry x="40" y="200" width="170" height="20" as="geometry" />
        </mxCell>
        <mxCell id="_cg74oSpWAH4K66VKZ7w-9" value="执行该Var注册的hook" style="text;html=1;strokeColor=none;fillColor=none;align=center;verticalAlign=middle;whiteSpace=wrap;rounded=0;fontSize=14;" vertex="1" parent="_cg74oSpWAH4K66VKZ7w-1">
          <mxGeometry x="40" y="310" width="170" height="20" as="geometry" />
        </mxCell>
        <mxCell id="_cg74oSpWAH4K66VKZ7w-10" value="call hooks" style="rounded=0;whiteSpace=wrap;html=1;strokeColor=#82b366;fontSize=14;fillColor=#d5e8d4;" vertex="1" parent="_cg74oSpWAH4K66VKZ7w-1">
          <mxGeometry x="271" y="300" width="110" height="40" as="geometry" />
        </mxCell>
        <mxCell id="_cg74oSpWAH4K66VKZ7w-11" value="跨batch梯度累加" style="text;html=1;strokeColor=none;fillColor=none;align=center;verticalAlign=middle;whiteSpace=wrap;rounded=0;fontSize=14;" vertex="1" parent="_cg74oSpWAH4K66VKZ7w-1">
          <mxGeometry x="40" y="400" width="170" height="20" as="geometry" />
        </mxCell>
        <mxCell id="_cg74oSpWAH4K66VKZ7w-12" value="old_x_g" style="text;html=1;fillColor=#f8cecc;align=center;verticalAlign=middle;whiteSpace=wrap;rounded=0;strokeColor=#b85450;fontSize=14;" vertex="1" parent="_cg74oSpWAH4K66VKZ7w-1">
          <mxGeometry x="250.5" y="395" width="79" height="30" as="geometry" />
        </mxCell>
        <mxCell id="_cg74oSpWAH4K66VKZ7w-13" style="edgeStyle=orthogonalEdgeStyle;rounded=0;orthogonalLoop=1;jettySize=auto;html=1;exitX=0;exitY=0.5;exitDx=0;exitDy=0;dashed=1;endArrow=classic;endFill=1;strokeWidth=1;fontSize=14;" edge="1" parent="_cg74oSpWAH4K66VKZ7w-1" source="_cg74oSpWAH4K66VKZ7w-14">
          <mxGeometry relative="1" as="geometry">
            <mxPoint x="330" y="410" as="targetPoint" />
          </mxGeometry>
        </mxCell>
        <mxCell id="_cg74oSpWAH4K66VKZ7w-14" value="x_g" style="text;html=1;fillColor=#dae8fc;align=center;verticalAlign=middle;whiteSpace=wrap;rounded=0;strokeColor=#6c8ebf;fontSize=14;" vertex="1" parent="_cg74oSpWAH4K66VKZ7w-1">
          <mxGeometry x="360" y="395" width="40" height="30" as="geometry" />
        </mxCell>
        <mxCell id="_cg74oSpWAH4K66VKZ7w-15" value="多卡reduce" style="text;html=1;strokeColor=none;fillColor=none;align=center;verticalAlign=middle;whiteSpace=wrap;rounded=0;fontSize=14;" vertex="1" parent="_cg74oSpWAH4K66VKZ7w-1">
          <mxGeometry x="40" y="480" width="170" height="20" as="geometry" />
        </mxCell>
        <mxCell id="_cg74oSpWAH4K66VKZ7w-16" value="call reduce hook" style="rounded=0;whiteSpace=wrap;html=1;strokeColor=#82b366;fontSize=14;fillColor=#d5e8d4;" vertex="1" parent="_cg74oSpWAH4K66VKZ7w-1">
          <mxGeometry x="271" y="470" width="119" height="40" as="geometry" />
        </mxCell>
        <mxCell id="_cg74oSpWAH4K66VKZ7w-19" value="GradientAccumulator" style="text;html=1;strokeColor=none;fillColor=none;align=center;verticalAlign=middle;whiteSpace=wrap;rounded=0;dashed=1;fontSize=14;" vertex="1" parent="_cg74oSpWAH4K66VKZ7w-1">
          <mxGeometry x="190" y="100" width="150" height="20" as="geometry" />
        </mxCell>
        <mxCell id="_cg74oSpWAH4K66VKZ7w-22" value="我们这四件事情是在一个类中完成的" style="text;html=1;strokeColor=none;fillColor=none;align=center;verticalAlign=middle;whiteSpace=wrap;rounded=0;fontSize=14;" vertex="1" parent="_cg74oSpWAH4K66VKZ7w-1">
          <mxGeometry x="170" y="575" width="140" height="20" as="geometry" />
        </mxCell>
      </root>
    </mxGraphModel>
  </diagram>
  <diagram id="aFapGUXhiTW2Wf1VWBPi" name="Page-7">
    <mxGraphModel dx="946" dy="613" grid="1" gridSize="10" guides="1" tooltips="1" connect="1" arrows="1" fold="1" page="1" pageScale="1" pageWidth="827" pageHeight="1169" math="0" shadow="0">
      <root>
        <mxCell id="-FTUagPJRXBshvOh8TYP-0" />
        <mxCell id="-FTUagPJRXBshvOh8TYP-1" parent="-FTUagPJRXBshvOh8TYP-0" />
        <mxCell id="-FTUagPJRXBshvOh8TYP-2" value="" style="rounded=0;whiteSpace=wrap;html=1;strokeColor=#000000;fillColor=none;fontSize=14;" vertex="1" parent="-FTUagPJRXBshvOh8TYP-1">
          <mxGeometry x="370" y="220" width="210" height="190" as="geometry" />
        </mxCell>
        <mxCell id="-FTUagPJRXBshvOh8TYP-3" value="" style="rounded=0;whiteSpace=wrap;html=1;strokeColor=#000000;fillColor=none;fontSize=14;" vertex="1" parent="-FTUagPJRXBshvOh8TYP-1">
          <mxGeometry x="260" y="220" width="90" height="190" as="geometry" />
        </mxCell>
        <mxCell id="-FTUagPJRXBshvOh8TYP-4" value="动态图" style="text;html=1;strokeColor=none;fillColor=none;align=center;verticalAlign=middle;whiteSpace=wrap;rounded=0;fontSize=14;" vertex="1" parent="-FTUagPJRXBshvOh8TYP-1">
          <mxGeometry x="405" y="240" width="50" height="20" as="geometry" />
        </mxCell>
        <mxCell id="-FTUagPJRXBshvOh8TYP-5" value="静态图" style="text;html=1;strokeColor=none;fillColor=none;align=center;verticalAlign=middle;whiteSpace=wrap;rounded=0;fontSize=14;" vertex="1" parent="-FTUagPJRXBshvOh8TYP-1">
          <mxGeometry x="280" y="240" width="50" height="20" as="geometry" />
        </mxCell>
        <mxCell id="-FTUagPJRXBshvOh8TYP-6" value="" style="rounded=0;whiteSpace=wrap;html=1;strokeColor=#000000;fillColor=none;fontSize=14;" vertex="1" parent="-FTUagPJRXBshvOh8TYP-1">
          <mxGeometry x="397" y="280" width="73" height="110" as="geometry" />
        </mxCell>
        <mxCell id="-FTUagPJRXBshvOh8TYP-8" value="动转静" style="text;html=1;strokeColor=none;fillColor=none;align=center;verticalAlign=middle;whiteSpace=wrap;rounded=0;fontSize=14;" vertex="1" parent="-FTUagPJRXBshvOh8TYP-1">
          <mxGeometry x="408.5" y="320" width="50" height="20" as="geometry" />
        </mxCell>
        <mxCell id="-FTUagPJRXBshvOh8TYP-9" value="前向&lt;br&gt;Tracer" style="rounded=0;whiteSpace=wrap;html=1;strokeColor=#000000;fillColor=none;fontSize=14;" vertex="1" parent="-FTUagPJRXBshvOh8TYP-1">
          <mxGeometry x="490" y="280" width="70" height="50" as="geometry" />
        </mxCell>
        <mxCell id="-FTUagPJRXBshvOh8TYP-10" value="反向Engine" style="rounded=0;whiteSpace=wrap;html=1;strokeColor=#82b366;fillColor=#d5e8d4;fontSize=14;" vertex="1" parent="-FTUagPJRXBshvOh8TYP-1">
          <mxGeometry x="490" y="340" width="70" height="50" as="geometry" />
        </mxCell>
        <mxCell id="-FTUagPJRXBshvOh8TYP-14" style="edgeStyle=orthogonalEdgeStyle;rounded=0;orthogonalLoop=1;jettySize=auto;html=1;exitX=0;exitY=0.5;exitDx=0;exitDy=0;endArrow=classic;endFill=1;strokeWidth=1;fontSize=14;" edge="1" parent="-FTUagPJRXBshvOh8TYP-1" source="-FTUagPJRXBshvOh8TYP-13" target="-FTUagPJRXBshvOh8TYP-10">
          <mxGeometry relative="1" as="geometry" />
        </mxCell>
        <mxCell id="-FTUagPJRXBshvOh8TYP-13" value="Hook体系" style="text;html=1;strokeColor=#82b366;fillColor=#d5e8d4;align=center;verticalAlign=middle;whiteSpace=wrap;rounded=0;fontSize=14;" vertex="1" parent="-FTUagPJRXBshvOh8TYP-1">
          <mxGeometry x="600" y="347.5" width="80" height="35" as="geometry" />
        </mxCell>
      </root>
    </mxGraphModel>
  </diagram>
</mxfile>
